<?xml version="1.0" encoding="UTF-8"?>
<!DOCTYPE svg PUBLIC "-//W3C//DTD SVG 1.1//EN" "http://www.w3.org/Graphics/SVG/1.1/DTD/svg11.dtd">
<!-- Creator: CorelDRAW -->
<svg xmlns="http://www.w3.org/2000/svg" xml:space="preserve" width="254mm" height="254mm" version="1.1" style="shape-rendering:geometricPrecision; text-rendering:geometricPrecision; image-rendering:optimizeQuality; fill-rule:evenodd; clip-rule:evenodd"
viewBox="0 0 25400 25400"
 xmlns:xlink="http://www.w3.org/1999/xlink"
 xmlns:xodm="http://www.corel.com/coreldraw/odm/2003">
 <defs>
  <style type="text/css">
   <![CDATA[
    .fil0 {fill:#00378A}
   ]]>
  </style>
 </defs>
 <g id="Camada_x0020_1">
  <metadata id="CorelCorpID_0Corel-Layer"/>
  <path class="fil0" d="M12856.44 9757.88l-42.53 203.09c-16.85,193.03 26.75,182.34 -99.71,297.94l-0.17 135.06 -160.28 82.4c29.47,114.7 78.05,78.05 171.25,67.42 180.02,242.63 195.41,285.72 223,486.04l26.53 83.76c90.21,2.38 45.58,-12.49 96.88,27.83l-119.45 -17.76c-5.54,153.55 -49.03,209.2 -47.9,385.15l7.24 267.4 -54.86 -2018.33zm55.43 2038.47l3.5 130.64c4.19,57.41 65.78,119 222.49,69.73 -9.33,-47.16 -55.87,-84.09 -92.01,-168.59l-22.34 -88.91c-10.13,-277.75 42.98,-332.21 96.43,-557.3l-48.53 -40.5c89.81,-5.32 85.97,-57.52 116.56,-151.01 28.11,-86.19 38.75,-133.64 91.4,-188.05 156.38,87.33 84.16,191.5 173.29,250.83 -65.78,131.84 -20.36,250.94 7.01,400.42 31.84,174.03 5.66,181.55 -5.03,282.39 -17.87,168.09 377.85,101.12 378.08,101.01 -3.28,-4.98 -9.28,-18.16 -11.2,-14.03l-53.9 -46.43c-87.21,-55.14 -172.1,-50.45 -183.18,-215.54 -10.47,-155.98 2.94,-376.32 44.51,-504.25l-8.54 -54.3c36.93,-51.63 26.69,-23.24 26.07,-172.5 -0.34,-75.84 1.02,-152.02 3.5,-227.64 49.6,-69.73 176.35,-177.19 190.37,-212.14l116 34.5 86.53 -92.87 -70.07 -73.86c-1.13,-0.68 -41.85,-27.2 -44.51,-28.79 -60.86,-35.17 -0.11,-5.93 -70.92,-36.36 -40.78,-28.68 -51.13,-43.72 -94.4,-73.36 -66.62,-45.58 -60.4,-24.71 -95.18,-82.17 -16.97,-28.11 -103.44,-238.84 -109.55,-265.08 -66,-249.02 -127.42,-153.95 -253.83,-228.15 2.04,-100.9 54.92,-139.92 -32.63,-240.08 -53.5,-61.14 -125.84,-87.16 -219.21,-78.9 -227.42,86.98 15.89,282.44 31.33,344.09 -92.02,141.5 -161.24,40.21 -227.47,188.73l55.43 2038.47zm4055.38 -6349.04c-20.08,2271.99 -83.93,4513.78 -118.94,6774.06 -26.07,1897.75 -241.55,2901.29 -935.67,4093.61 -583.78,1002.75 -1433.2,1859.7 -2567.38,2171.72 -1287,353.99 -2583.28,-30.66 -3604.24,-878.27 -904.56,-751.07 -1517.01,-1842.27 -1787.52,-3069.38 -327.35,-1484.94 -140.49,-5629.41 -158.92,-7131.6l-18.39 -1962.91c115.95,62.61 166,159.21 261.69,239.8 1075.48,907.67 2788.86,729.13 3946.51,105.25 139.7,-75.22 270.34,-178.43 400.65,-234.93 276.05,110.79 616.75,380.96 987.14,519.81 1094.37,410.37 2118.04,364.05 3118.86,-277.47 174.14,-111.53 327.13,-265.14 476.21,-349.69zm-7670.99 4257.07c25.45,151.96 42.76,274.3 52.94,400.19 10.18,125.73 13.23,255.47 10.12,422.42 -2.94,161.13 3.57,320.79 9.96,477.05 5.65,139.36 11.25,276.06 9.9,409.47l-0.06 7.7 -89.25 46.09c-28.67,49.94 -102.19,136.36 -169.16,215.14 -35.52,41.74 -69.17,81.33 -92.75,111.36l0 0.06c-31.45,40.1 -45.58,69.84 -46.94,91.28 -0.96,14.76 4.92,25.17 15.55,32.18 12.56,8.2 31.45,12.39 53.84,13.52 67.47,3.45 162.83,-20.7 223.12,-48.3 36.02,-16.4 66.56,-33.26 94.33,-48.58 103.11,-57.01 169.16,-93.49 361.12,-30.83 40.94,13.35 79.69,27.71 118.43,42.08 108.98,40.44 217.85,80.82 352.85,91.4 -9.39,-42.93 -19.4,-67.65 -29.69,-92.98 -11.42,-28.06 -23.19,-56.9 -34.84,-110.97l-4.07 -18.77 384.53 71.2c-42.14,-152.87 -106.33,-261.29 -189.64,-344.54 -86.98,-87.04 -195.23,-146.99 -321.35,-201.8l-6.39 -2.77 -17.02 -102.87c-76.53,-135.23 -75,-359.48 -73.7,-550.64 0.17,-27.82 0.34,-54.97 0.28,-80.87 -0.05,-40.67 -1.58,-73.75 -2.88,-103.16 -3.56,-78.79 -5.94,-131.1 22.45,-240.08 15.95,-61.2 26.08,-104.29 32.35,-148.58 6.22,-44.11 8.71,-89.75 9.34,-155.81 -16.58,-133.08 -40.95,-236.41 -68.21,-352.24 -6.73,-28.78 -13.74,-58.31 -21.78,-93.82 -22.05,-96.83 -1.01,-194.5 20.93,-295.96 11.71,-54.58 23.75,-110.23 29.18,-167.13l-4.18 -3.22c-2.72,-2.15 -5.21,-4.02 -6.96,-5.49l-30.99 -26.24c-19.12,-17.65 -32.69,-35.29 -45.08,-51.58 -27.14,-35.46 -48.3,-62.95 -115.26,-58.31 -55.42,3.79 -113.17,79.86 -173.12,158.87 -55.08,72.62 -111.98,147.67 -175.1,176.74l-7.29 3.28 -6.22 -5.04c-108.37,-89.13 -187.04,-201.68 -257.85,-303.14 -92.64,-132.51 -171.48,-245.34 -283.06,-255.01 -94.51,105.76 -30.49,184.43 79.18,319.32 127.14,156.37 312.98,384.75 392.39,809.09l0.05 0.29zm27.32 402.23c-10.12,-125.33 -27.32,-246.87 -52.6,-398.05l-0.34 -1.64c-37.66,-0.51 -113,-12.72 -167.35,-0.68 -69.11,15.33 -52.26,22.63 -85.17,60.57 -2.55,2.95 -9.45,19.46 -11.26,15.33 -1.86,-4.18 -6.78,11.26 -11.14,16.01 -126.23,-2.72 -113.17,13.29 -192.52,-65.33l-45.47 -47.05c-29.92,71.03 -22.79,110.28 -109.49,57.74 -85.06,-51.41 77.48,-65.77 -153.78,-62.72 -101.4,1.3 -276.62,21.15 -370.56,51.41 -3.11,-10.01 -5.88,-19.51 -8.42,-28.67 -5.89,425.7 -10.35,851.29 -11.2,1276.99 -0.68,308.57 0.17,617.65 4.3,926.68 6.39,-168.99 24.99,-342.45 26.64,-424.91 311.56,55.71 802.93,-6.73 1130.11,-23.87 1.47,-2.43 2.77,-4.75 4.01,-6.9l1.87 -3.39 82.46 -42.65c1.02,-130.02 -4.47,-263.89 -10.01,-400.42 -6.39,-156.49 -12.9,-316.32 -9.96,-478.47 3.06,-165.65 0,-294.6 -10.12,-419.98zm671.61 -252.13c-0.57,67.3 -3.11,113.73 -9.5,158.81 -6.39,45.41 -16.74,89.3 -32.92,151.51 -27.43,105.14 -25.17,155.99 -21.66,232.62 1.3,29.3 2.83,62.33 2.88,104.18 0.06,26.01 -0.11,53.16 -0.28,80.93 -1.3,187.26 -2.77,406.81 69.45,536.32 63.91,-71.26 132.69,-156.43 189.02,-248.73 58.31,-95.52 157.9,-221.19 193.25,-287.19 91.34,-60.41 171.37,-115.38 299.86,-158.02l3.11 6.39c1.59,3.16 4.41,5.65 7.81,6.61l9.61 71.6c-0.51,11.71 -3.17,35.01 -5.77,58.31 -1.98,17.99 -4.01,35.86 -5.09,48.81 -32.23,21.78 -58.08,34.56 -78.5,44.8 -75.33,37.44 -84.21,41.85 -88,268.58l-0.57 30.37c-0.9,43.44 -1.3,64.65 2.83,80.77 4.36,16.79 12.33,25.73 27.94,43.09 3.96,4.41 8.54,9.56 14.76,16.8 0.79,0.9 1.64,1.64 2.66,2.32 5.88,4.01 13.8,2.43 17.76,-3.45l9.61 -14.31c16.69,-24.66 24.21,-35.8 27.89,-54.07 2.88,-14.31 2.77,-31.22 2.6,-62.21 -0.06,-16.91 -0.17,-38.35 0.17,-66.06 0.28,-24.04 -0.23,-41.62 -0.62,-55.08 -0.51,-17.48 -0.8,-27.66 1.13,-35.13 2.03,-7.8 7.63,-15.1 19.74,-28.78l13.91 36.36 10.52 131.89 -29.75 74.32c-17.31,50.9 -31.96,84.61 -44.17,112.77 -21.27,48.92 -35.46,81.78 -43.27,152.99 -0.62,6.05 3.06,11.82 9,13.63 40.6,12.55 73.35,23.47 102.31,33.08 137.77,45.87 191.27,63.63 424,43.38 46.72,-4.07 92.41,-5.6 137.32,-7.07 152.59,-4.81 296.19,-9.44 405.06,-108.19 3.73,-3.17 5.54,-8.2 4.18,-13.24l-61.47 -230.18 -2.95 -45.53c69.29,-6.16 81.9,-10.35 80.71,-24.32 -0.34,-4.07 -1.81,-6.39 -3.62,-8.88l-0.51 -0.85c-0.11,-0.11 -0.22,-0.22 5.09,-4.29 3.28,-2.55 5.26,-6.62 5.04,-10.98 -2.55,-41.62 -4.53,-85.28 -6.51,-128.78 -2.37,-52.14 -4.75,-104.29 -7.86,-149.87 -7.75,-111.81 -51.24,-111.47 -127.82,-110.85 -22,0.11 -47.05,0.34 -75.33,-2.83 -5.54,-6.05 -11.03,-11.76 -16.23,-17.25 -39.82,-41.51 -66,-68.88 -71.04,-145.07 0.68,-1.13 1.25,-2.43 1.53,-3.78l444.82 -17.2 894.04 -93.26 -0.11 125.84 -153.38 78.78c-5.71,3 -8.26,9.56 -6.34,15.5 26.98,103.84 67.81,96.37 137.89,83.59 12.16,-2.32 25.28,-4.7 39.76,-6.56 86.59,116.9 133.92,186.47 162.77,250.49 1.75,4.01 3.45,7.8 5.09,11.7l0.17 0.51c25.22,60.18 35.29,118.72 48.07,211.41 0.11,0.68 0.28,1.42 0.45,2.09l24.83 78.33 -6.73 -1.01c-7.01,-1.02 -13.52,3.84 -14.59,10.91 -0.11,0.68 -0.11,1.47 -0.11,2.26 -2.55,68.32 -12.79,117.3 -23.14,166.62 -4.58,21.94 -9.22,43.89 -13.17,67.75 -0.63,3.74 -1.25,7.53 -1.81,11.32 -6,38.79 -10.13,82.85 -9.79,139.12l7.3 267.57c0.05,4.13 2.09,7.75 5.14,9.96 -2.88,2.43 -4.69,6.11 -4.63,10.23l3.56 131.22c0.57,7.57 1.98,15.15 4.3,22.67 7.01,22.23 22.11,43.1 47,57.58 23.86,13.91 56.78,21.77 100.16,18.72 25.39,-1.87 54.52,-7.52 87.6,-17.87 6.34,-1.98 10.07,-8.43 8.83,-14.76 -5.26,-26.59 -20.36,-48.87 -38.91,-76.47 -16.69,-24.66 -36.37,-53.95 -53.51,-93.71l-21.77 -86.82c-7.01,-196.36 18.1,-279.67 52.37,-393.46 13.63,-45.41 28.73,-95.47 43.78,-158.92 1.24,-5.15 -0.85,-10.35 -4.81,-13.29l-25.45 -21.27c56.38,-12.27 67.19,-50 84.61,-111.25 3.9,-13.74 8.2,-28.84 13.34,-44.73l9.28 -28.79c20.25,-63.29 33.31,-103.84 72.39,-147.05 77.26,46.15 90.44,97.05 102.26,142.47 9.38,36.25 18.04,69.45 52.37,96.31 -50.11,108.65 -29.02,208.02 -4.81,322.21 5.32,25 10.75,50.78 15.44,76.46 22.74,124.26 15.33,161.64 5.65,210.79 -3.78,19.06 -7.86,39.7 -10.85,67.92 -1.76,16.46 0.05,31.11 4.75,44 9.61,26.53 30.99,45.25 59.27,58.14 26.64,12.22 59.44,19.29 94,22.91 108.36,11.54 237.25,-10.63 237.36,-10.69 6.62,-2.43 10.01,-9.9 7.52,-16.46 -0.39,-0.96 -0.84,-1.92 -1.41,-2.71 -0.51,-0.74 -1.36,-2.38 -2.32,-4.02l-0.56 -0.96c-3.23,-5.6 -6.9,-11.76 -12.16,-14.14l-0.12 -0.06c-0.84,-0.39 -1.75,-0.73 -2.54,-0.96l-49.6 -42.81c-0.51,-0.4 -1.02,-0.79 -1.59,-1.13 -20.02,-12.73 -39.58,-22.12 -58.25,-31.22 -60.63,-29.18 -110.85,-53.45 -118.99,-174.31 -5.43,-81.61 -4.36,-181.09 4.01,-275.6 6.51,-73.86 17.42,-144.56 33.03,-200.83 15.22,64.98 41.97,93.66 75.67,144.05l263.39 -39.76 436.1 -25.22 260.67 53.27c180.65,112.61 179.46,172.16 269.61,422.2 64.81,179.62 155.3,320.56 358.96,337.24 41.29,42.76 -32.52,-6.61 60.74,46.15 16.97,9.62 55.37,25 71.44,31.22 244.43,95.36 666.46,222.21 920.68,134.78 81.84,-28.17 120.46,-59.61 151.06,-101.69 9.96,-651.25 22.45,-1302.5 35.63,-1953.75 -339.85,-2.94 -1419.34,0.12 -1512.38,52.37 -201.11,-36.36 -460.03,40.5 -645.36,-16.17 -60.8,-83.14 -83.99,-107.97 -184.6,-140.49 -75.68,-112.6 -434.13,-230.63 -623.88,-254.22 -0.56,-1.87 -0.96,-3.28 -1.24,-4.41l-0.17 -0.74c-47.4,-178.54 -93.72,-187.88 -161.92,-201.56 -26.41,-5.21 -56.39,-11.26 -91.17,-30.32 1.19,-25.11 5.54,-46.43 9.56,-66 11.65,-56.67 20.47,-99.65 -45.64,-175.15 -28.17,-32.3 -61.37,-55.26 -99.94,-69.17 -38.29,-13.75 -81.5,-18.38 -129.97,-14.14 -1.47,0.11 -2.82,0.45 -4.13,1.02 -109.04,42.02 -118.31,107.68 -92.97,173.79 16.85,44.17 49.71,87.61 76.91,123.69 17.7,23.36 32.92,43.55 38.4,56.56 -40.55,60.12 -76.4,70.64 -109.43,80.31 -40.21,11.71 -76.86,22.57 -112.38,98.18 -10.41,-23.24 7.3,-37.95 -197.78,-35.35l-680.26 17.59c-248.91,12.5 -543.23,26.19 -783.42,65.72 -0.11,-0.79 -0.34,-1.64 -0.68,-2.43 -7.86,-20.76 -6.62,-24.04 -6.11,-25.39 1.7,-4.53 2.66,-7.13 -0.85,-12.96l0 0c-2.03,-3.39 -4.18,-4.75 -9.27,-7.74l-4.24 -2.49c6.22,-4.81 10.8,-9.16 14.93,-13.01 4.58,-4.41 8.48,-8.2 13.63,-10.86 1.58,-0.79 2.88,-1.87 3.96,-3.17 45.07,-48.97 63.85,-106.83 62.32,-164.41 -1.3,-50.27 -18.1,-100.21 -46.32,-143.76 -28.16,-43.38 -67.75,-80.43 -114.69,-105.14 -60.86,-32.01 -134.04,-43.38 -210.79,-20.93l-0.68 0.23c-39.7,11.93 -86.93,49.66 -125.55,94.96 -38.46,44.96 -69.06,98.01 -75.96,141.28 -17.98,112.2 13.46,151.12 48.64,194.49 23.58,29.24 49.03,60.69 59.27,122.62 0.11,0.45 0.23,0.96 0.34,1.41 -116.56,32.01 -398.5,77.77 -501.77,53.9l-297.43 -35.91zm-4191.01 3399.95c21.89,132 72.56,268.19 135.34,391.88 76.07,149.93 169.73,281.2 251,363.77 38.74,39.42 97.73,73.07 165.43,99.99 76.91,30.49 164.8,51.98 247.04,62.78 173.4,22.85 265.47,-1.24 377.74,-30.65 41.51,-10.86 85.79,-22.46 137.49,-32.69 51.58,-187.54 2.43,-250.49 -45.76,-312.2 -35.86,-45.92 -71.2,-91.16 -70.3,-179.9 0.57,-58.71 -3,-96.66 -16.63,-128.44 -13.51,-31.62 -37.61,-58.31 -77.99,-94.56 -25.11,-22.46 -36.02,-29.19 -41.68,-32.58 -4.3,-2.66 -6.62,-4.07 -9.44,-7.75l0 -0.06c-2.61,-3.45 -4.02,-7.01 -7.13,-14.81 -3.34,-8.49 -9.11,-22.91 -21.1,-49.09 -7.63,-16.58 -13.06,-29.64 -17.81,-41.18 -10.8,-26.13 -18.16,-43.83 -40.04,-73.92 -96.6,-132.9 -179.29,-118.6 -260.9,-104.34 -35.23,5.99 -70.3,12.1 -106.95,7.86 -24.77,-2.94 -50.28,-11.2 -78.1,-20.36 -82.29,-26.75 -186.41,-60.69 -339.34,33.42 -63.23,38.97 -84.95,66.34 -105.42,92.13 -17.99,22.8 -35.12,44.34 -75.45,70.7zm-25.39 3.45l-1.25 -7.81 -1.3 -8.31 7.19 -4.47c41.79,-26.18 58.47,-47.22 76.12,-69.45 21.77,-27.43 44.91,-56.67 112.04,-98.01 163.11,-100.39 273.51,-64.42 360.72,-36.03 26.58,8.65 50.9,16.63 73.12,19.17 33.03,3.85 66.29,-1.86 99.66,-7.63 89.47,-15.55 180.02,-31.28 286.06,114.58 23.53,32.3 31.39,51.3 42.93,79.24 4.75,11.42 10.06,24.37 17.42,40.27 12.15,26.58 18.09,41.57 21.6,50.45 2.15,5.37 3.22,7.97 3.68,8.65 0.11,0.11 0.84,0.39 2.48,1.41 6.23,3.79 18.33,11.2 45.36,35.46 43.27,38.74 69.23,67.81 84.55,103.44 15.22,35.52 19.23,76.36 18.61,138.79 -0.85,79.75 31.79,121.49 64.87,163.91 52.83,67.64 106.72,136.64 48.13,342.61l-2.15 7.58 -7.8 1.42 -8.77 1.75c-111.53,245.46 -431.19,650.74 -805.19,529.65 -104.92,-33.93 -187.83,-125.38 -271.93,-181.66 -219.1,51.02 -456.92,295.62 -579.59,478.7 65.66,281.65 149.54,216.38 302.41,252.01 -44.06,38.29 -31.28,34.16 -100.78,50.45 0,118.15 10.63,175.95 51.12,251.17 27.6,51.13 68.66,119.28 101.35,175.83l200.27 366.89c-67.59,74.31 -52.77,136.47 -169.16,271.58 -62.21,72.22 -138.11,133.81 -222.33,184.32 -366.93,-657.25 25.68,-603.01 135.8,-771.38 -171.77,15.61 -231.49,149.03 -323.85,233.19 -158.86,-266.78 -33.76,-523.04 -25.11,-604.2 -122.1,83.88 -97.33,251.17 -93.65,423.1 -142.24,-99.54 -94.11,-217.74 -355.12,-214.23 6.67,6.1 15.78,11.42 22.45,15.38l43.49 26.52c153.16,79.07 149.42,36.77 307.39,320.34 69.9,125.61 155.98,323.33 187.42,462.29 -72.56,-53.27 -369.25,-259.99 -511.44,-208.52 110.91,103.21 373.73,76.8 534.24,318.07 122.33,183.92 25.79,483.45 15.83,711.94 -363.83,-7.47 -258.63,-88.91 -484.23,-268.19 -130.88,-104.18 -275.43,-236.47 -461.22,-296.76 34.16,-193.31 105.65,-308.51 -26.47,-475.3 -60.74,-76.69 -229.68,-214.18 -349.97,-140.94 113.62,81.39 211.52,15.27 328.59,187.32 77.77,114.24 80.48,281.71 -14.25,379.44l-569.3 -169.9c-43.38,-73.07 29.07,-410.88 -73.24,-609 -76.69,-148.52 -320.9,-187.82 -547.69,-179.23 188.27,189.86 680.15,-167.91 550.74,772.85 -163.22,-20.82 -286.74,-147.9 -399.85,-212.32 147.05,345.17 1024.86,319.83 1336.94,637.23 -154.91,225.54 -566.64,258.57 -875.55,199.53l-106.67 1.98c133.76,100.27 408.28,98.46 588.87,54.91 188.78,-45.58 304.39,-139.35 448.66,-209.88 110.23,43.44 347.65,263.27 382.66,362.3 -132,57.63 -229.79,162.15 -357.49,229.62 -59.56,-40.89 -67.42,-75.84 -108.31,-127.08 -32.63,-41 -72.33,-80.03 -145.46,-87.21 -95.81,-9.39 -240.2,70.98 -263.04,143.26 95.18,-15.05 336.17,-265.03 457.14,112.88 -85.96,143.66 -223.91,205.25 -288.72,456.25 -47.73,184.77 2.15,461.84 39.19,636.09 25.4,-38.24 19.01,-12.84 23.65,-73.81l-28.79 -195.29c-12.44,-91.06 -17.37,-201.11 -6.22,-292.34 20.19,-164.81 106.94,-293.25 206.31,-393.01 193.99,-194.61 468.12,-463.76 780.37,-374.63 30.26,-89.59 45.64,-596.22 40.95,-720.81 181.43,-194.33 261.69,-171.94 396.23,-478.7 38.57,59.84 104.01,253.66 106.22,352.69 356.25,7.92 1024.01,230.3 1300.46,438.25 221.02,166.34 124.42,126.58 122.44,368.19 -46.32,169.1 -120.41,169.38 -144.73,363.32 23.76,-22.57 22.74,-12.05 47.74,-50 51.01,-77.54 83.47,-271.98 236.35,-372.42 147.84,54.29 367.73,313.94 571.16,388.6 -18.15,-29.75 -35.01,-58.88 -47.73,-77.6 87.94,-132.23 178.32,-233.69 344.31,-291.38 68.66,-23.81 176.01,-55.88 241.5,-60.91 104.97,-7.92 198.91,18.15 276.67,-19.91l77.77 95.07c-89.81,58.94 -55.31,137.27 -11.09,235.28l230.81 399.4c224.3,411.22 71.77,382.89 411.34,521.06 924.24,376.32 1519.9,496.96 2543.06,581.57 718.49,59.44 2655.22,-191.28 3104.44,-647.35l443.46 -488.93c717.2,-890.82 1117.84,-1414.76 1415.33,-2641.59 157.74,-650.23 106.61,-1955.61 10.41,-2632.14 -13.07,-91.9 -23.64,-201 -31.79,-270.9 -25.5,-218.03 -22,-304.45 84.44,-460.82 102.82,-151.18 260.73,-180.25 409.36,-57.8 130.64,107.51 121.93,290.41 153.49,476.43 59.33,349.35 94.68,906.15 124.03,1086.84 1.53,-1.69 3.11,-3.5 4.3,-4.97 40.78,-47.91 80.42,-104.69 123.18,-165.88 64.76,-92.59 136.58,-195.35 229.84,-293.81l222.38 -236.64 5.15 1.53c-3,-132.17 -46.66,-240.82 -69.17,-346.41 -57.8,-271.58 -93.99,-231.82 -6.28,-296.19l151.24 579.65c0,-221.87 -44.4,-837.77 25.16,-982.78 74.32,54.41 53.34,68.04 51.81,200.21l46.6 654.13c17.08,-47.62 19.63,-60.91 37.1,-114.02 54.64,-165.71 154.52,-549.89 242.46,-614.26 0,139.59 -221.25,784.73 -295.96,946.87l5.15 8.49 0 3.5c0,72.68 4.13,178.38 8.31,285.61 6.22,157.57 12.5,318.59 6.22,382.5 -5.94,60.62 -9.39,113.11 -11.31,166.95 -1.92,52.82 -2.43,108.25 -2.43,174.87l0 0c0,82.52 -7.69,136.47 -16.12,195.41 -5.37,37.78 -11.08,77.54 -15.16,128.44l-0.17 2.09c-6.73,15.33 -13.46,32.52 -20.7,47.62 86.93,-2.38 -0.9,49.66 154.46,-163.34 331.87,-455.16 399.8,-532.08 765.15,-946.36 374.97,-425.3 356.93,-267.51 318.64,-386.73l-16.29 12.22 3.62 -92.98 -5.31 -262.93c5.82,-101.24 -8.82,-73.41 19.51,-104.18l0.79 -20.81 21.83 -70.87 3.11 -2.49c0.8,-0.68 2.55,-2.88 4.25,-5.14 0.79,-1.02 1.58,-1.93 2.31,-2.89 -11.14,-82.29 -17.59,-161.64 -0.56,-244.44 8.59,-41.79 25.05,-68.88 30.48,-100.95 18.16,-107.06 18.61,-48.13 -5.71,-75.9l-59.55 89.81c1.3,-65.26 2.71,-130.53 3.96,-195.85l1.24 -2.43c6.39,-12.78 42.3,-221.25 76.8,-434.36 34.22,-211.29 66.8,-426.32 67.64,-460.25l0.06 -1.93 8.37 -24.66 -101.23 -501.88c-87.95,-407.94 -183.76,-889.41 -324.3,-1263.24 -78.44,-208.58 -78.67,-131.33 -50.62,-229.57 -54.18,-247.66 -354.04,-645.82 -515.11,-817.69 -61.93,-66.06 -99.54,-62.27 -89.87,-150.22 11.31,-103.38 116.9,-314.62 28.5,-464.66 -42.53,48.41 -15.95,-3.91 -39.76,72.05 -13.4,42.64 -10.8,54.35 -13.74,98.8 -4.41,67.31 -2.38,80.54 -16.12,140.72 -28.62,125.04 -33.93,192.34 -97.96,274.13 -257.1,328.42 -788.73,974.63 -1110.43,1096.63 130.37,-232.96 271.31,-418.18 411.06,-714.48 64.53,-136.7 116.16,-270.17 162.43,-417.33 228.26,-725.79 -29.07,-294.55 415.18,-590.06 76.24,-50.67 205.81,-171.99 264.17,-193.42 606.63,347.77 1157.55,1468.6 1457.47,2121.89 53.95,117.58 39.25,114.18 90.99,143.65l0.17 -0.4 1.53 -1.92c4.58,-5.54 9.22,-11.37 13.8,-17.42 31.11,-293.92 205.13,-1112.97 276.85,-1462.32 50.1,-244.27 70.63,-236.24 -16.24,-462.07 -115.2,-299.58 -225.66,-548.88 -374.85,-811.25 -134.21,-236.01 -298.79,-539.15 -613.47,-487.46 150.33,-382.71 603.34,158.02 689.42,285.39 266.33,393.97 218.08,381.92 376.05,702.54 51.58,104.86 41.45,119.62 59.66,88.23 2.61,-4.52 10.35,11.59 16.29,16.68 29.86,-143.48 79.24,-164.18 87.89,-311.51l-49.71 5.83c0,-496.34 57.86,-518.4 -129.06,-661.15 -125.39,-95.75 -313.38,-250.15 -349.69,-406.19 33.7,18.89 26.24,11.99 69.11,25.17 -40.61,-122.22 10.07,-150.16 107.23,-201.57 102.88,97.56 133.98,214.07 -50.39,262.88 73.86,79.4 242.63,229.84 377.97,241.04 0,-147.22 25.22,-176 25.22,-302.35l-65.55 -25.17c13.57,46.32 25.96,64.25 40.33,125.95l-33.15 42.42c-42.58,49.32 2.66,15.05 -36.31,39.31 -51.69,32.18 -34.27,17.47 -106.94,19.11 -79.18,-149.76 -82.01,-226.34 100.84,-263.44 -65.21,-61.76 -98.81,-58.93 -166.85,-149.36 -52.42,-69.68 -66,-118.66 -103.15,-191.95 -42.42,208.29 -194.33,195.28 -233.98,25.16 -116.11,133.59 -218.76,101.69 -232.39,-81.16l106.38 -95.18c80.71,42.59 91.06,8.99 100.79,125.95 155.47,-41.46 87.15,-159.71 259.2,0 -14.71,-72.17 -8.15,-51.92 -32.41,-100.78 72.5,-40.78 28.33,-13.46 56.72,0 22.57,-47.4 20.08,-76.01 44.12,-125.95 96.71,-20.53 30.65,-18.22 139.52,0 -59.49,-121.32 -79.46,-329.67 -149.36,-393.41 -52.77,-48.19 -98.35,-57.75 -160.62,-116.56 -55.31,-52.32 -69.91,-78.45 -131.95,-120.07 16.23,-61.2 -11.25,-33.94 49.6,-50.34 14.65,-59.1 24.21,-72.05 26.02,-147.72 -152.25,-119.79 46.2,-330.07 158.52,-28.68 90.38,74.6 74.32,113.17 141.96,205.53l86.36 273.05 66.12 -184.03 10.74 -47.96c-93.26,8.54 -111.53,-4.47 -163.22,-41.06 3.56,-131.21 -0.79,-119.28 52.26,-180.3 -38.8,-57.97 -48.13,-50.62 -50.39,-151.24 -77.54,37.16 -153.38,36.37 -174.87,-55.31 -31.34,-133.76 147.61,-245.57 200.04,-20.25 106.66,-24.88 83.19,-24.2 176.4,25.17 0,144.11 -0.29,132.17 -47.23,222.83l63.8 54.35 33.82 -50.44c-2.77,124.87 -53.96,301.16 -76.52,428.69 -28.73,162.66 -12.11,227.31 37.32,377.75l64.42 -126.01c190.71,0 151.18,18.72 150.44,200.21l-100.05 51.75 -114.81 -100.79c30.54,96.26 56.05,176.29 64.42,277.19 237.65,-159.15 223.46,-359.02 327.58,-478.81 -3.28,147.1 -117.92,457.03 -180.53,550.24 -75.56,112.26 -118.15,83.14 -91.06,273.22 9.67,67.87 17.2,252.92 44.8,310.44 63.45,-46.43 128.72,-158.75 151.23,-247.89 -95.53,12.73 -60.52,18.72 -151.23,-29.29l2.26 -173.35 48.13 -33.71c3.45,-1.86 40.32,-22.79 45.41,-25.9 2.94,-1.87 12.9,-3.05 15.16,-10.69 2.26,-7.75 9.95,-7.69 15.04,-11.42 0,-95.41 8.6,-102.03 25.23,-173.23 170.4,0 167.69,13.51 182.11,176.34 59.16,-46.49 38.85,-47.96 145.41,-50.39 -89.7,134.09 -57.01,10.29 -193.26,285.55 -56.95,115.09 -99.48,183.3 -134.26,311.91 141.33,29.07 125.95,56.73 125.95,208.92 -33.2,27.77 -49.49,6.56 -67.08,8.31 39.88,-85.11 48.92,-77.31 -8.54,-153.15 -109.83,15.72 -90.88,31.73 -72.62,148.18l81.16 4.97c-0.45,1.13 33.77,105.42 -88.4,27.38 -44.22,-28.34 -42.3,-55.43 -58.36,-111.25l-38.12 0c0,198.23 -49.66,396.63 10.86,529.14 -39.76,44 -20.64,34.22 -21.27,35.8 -34.67,-101.29 -0.22,-45.41 -60.68,-93.09 3.67,96.09 -5.21,104.91 45.87,175.5 90.77,-48.13 229.33,-380.74 506.69,-593.79 287.36,-220.68 610.52,-93.94 692.93,235.22 -85.69,-38.4 -10.41,-0.06 -81.22,-45.19 -26.69,-17.02 -45.36,-34.39 -74.94,-51.92 -400.25,-237.03 -730.48,408.51 -863.67,696.38 -153.21,331.36 -207.96,728.22 -289.85,1095.84l-64.08 291.83c-7.69,123.01 -11.6,67.93 7.75,80.59l28.5 -60 84.67 -77.43 2.94 1.75c1.75,-90.66 18.43,-128.55 35.85,-219.26 14.37,-75.23 26.25,-155.08 36.14,-215.82 23.19,-141.96 76.18,-318.81 79.07,-450.14l50.45 0c0,268.7 -104.41,546.85 -126.01,806.44l57.57 -68.43c22.4,-28.17 25.4,-33.37 43.33,-57.46 101.68,-137.04 165.37,-241.95 327.46,-327.69 -8.77,105.25 -38.86,104.68 -107.12,170.06 -59.21,56.62 -274.81,325.71 -316.15,413.43l1.07 0.74 5.32 3.84 0 6.51c0,117.3 12.22,229.9 24.94,347.2 11.65,107.34 23.7,218.76 27.38,341.6l0.05 2.77c-11.42,27.6 -22.85,55.2 -34.38,82.8l-0.63 1.02c31.9,22.45 -18.21,25.5 40.1,-17.14l121.99 -154.91c258.69,-342.11 351.11,-484.35 665.62,-794.84 181.2,-178.84 208.01,-169.05 811.02,-10.3 134.77,35.46 231.37,311.29 294.66,438.83 267.4,539.26 392.22,1147.02 437.8,1753.25 -22.68,-25.34 -11.03,-8.26 -38.46,-51.36 -40.1,-63.11 25.17,49.26 -19.96,-34.89l-96.77 -204.17c-162.37,-343.02 -485.88,-932.96 -732.8,-1184.07 -45.25,-45.98 -49.6,-64.36 -90.55,-112.32 -42.25,-49.6 -67.53,-61.59 -110.51,-116.22 -67.42,-85.8 -214.46,-282.95 -303.09,-326.67 -48.01,81.49 20.59,89.13 -12.5,168.03l-1094.25 1422.51c-107.46,148.34 -350.82,382.32 -375.31,564.66 104.74,-38.91 100.9,-52.32 148.91,-116.28l669.24 -866.34c130.02,-162.43 248.84,-330.4 382.15,-499.79 76.18,-96.82 297.83,-414.78 379.21,-465.46 50.9,91.06 145.58,192.58 226.74,270.57l-127.54 120.97c-49.77,57.86 -65.04,76.02 -120.47,131.72l-1142.32 1252.9c-143.77,126.12 -289.06,334.14 -318.59,624.55 2.89,-1.92 5.04,-3.05 7.02,-4.12 4.97,-2.72 8.2,-4.42 30.93,-32.24l0.91 -1.13 1.02 -0.79c42.58,-34.33 118.37,-82.07 196.47,-123.02 66.57,-34.72 135.06,-64.7 186.53,-77.14l6.39 -1.64 4.07 3.51 342.39 -665.95c114.02,-124.15 39.14,65.88 13.12,115.54 -33.31,63.51 -42.98,73.64 -59.27,143.6 134.72,-90.27 207.73,-172.05 403.19,-176.46l0 75.62c-241.78,0 -433.11,222.09 -554.36,403.19l335.94 -170.29c75.05,-30.77 29.47,-32.13 92.42,-6.11 -22.12,61.14 -26.76,54.63 -125.39,101.46 -272.49,129.29 -231.03,142.3 -397.25,244.95l0.11 0.28 0.96 2.38 -0.05 2.48c-1.02,58.82 -14.09,140.94 -30.66,223.12 -16.57,82.57 -36.42,164.41 -51.3,223.45 -6.84,27.21 -15.55,58.31 -24.88,91.46 -28.96,103.04 -63.63,226.45 -65.61,321.75l-0.17 7.4 -118.65 64.54c26.64,20.07 -1.25,13.91 58.87,3.05 58.94,-10.63 84.67,-52.99 157.8,-93.49 243.98,-135.17 578.46,36.42 769.22,171.42 105.59,74.66 300.26,223.35 335.95,346.24 130.87,451.32 192.35,1385.53 188.16,1867.61 -1.13,128.1 5.83,1194.93 -68.71,1315.45 -101.86,-446.12 -315.87,-1601.62 -431.25,-1944.92 -134.04,-398.72 -95.35,-499.73 -223.34,-950.49 -47.96,-168.76 -204.17,-751.47 -405.4,-787.78 -148.06,339.06 -51.07,205.98 -437.57,514.05l-700.4 559.4c-27.94,21.38 -66.85,49.43 -85.91,64.87 -28.96,23.41 -9.73,0.56 -43.15,38.68 -49.6,56.78 7.46,-52.99 -34.16,56.84 53.33,27.04 -50.34,36.76 83.19,14.93 65.55,-10.8 853.1,-675.06 1000.54,-789.02 195.35,-150.95 156.95,-91.96 264.86,-342.84 4.75,38.85 92.64,165.31 124.2,239.57 42.13,99.2 75.67,190.2 103.95,298.56 -132.4,49.83 -1201.77,871.14 -1339.32,972.77 -822.67,607.7 -600.69,350.99 -1145.15,1173.83 -154.12,232.96 -310.9,463.32 -464.45,696.95 -200.77,305.52 -1316.07,1966.13 -1374.6,2102.94l-265.93 -134.38c65.89,-238.78 361.56,-689.65 449.57,-1137.63l-38.35 47.79c-3.34,5.2 -7.13,11.59 -10.18,17.19 -9.16,16.74 -16.17,37.27 -22.9,55.43 -15.16,41.28 -25.17,78.84 -37.73,113.28 -127.59,350.48 -353.65,948.62 -641.18,1174.06 -160.34,125.61 -123.12,73.58 -144.44,179.28 184.09,-98.18 252.41,-231.94 428.24,-374.23 115.09,8.31 156.15,48.8 214.75,98.24 124.48,264.11 207.05,392.38 195.34,785.73 -10.29,347.43 -1035.09,1238.76 -1367.76,1459.62 -2369.83,1572.78 -5638.29,1327.83 -7863.11,-376.11 -155.13,-118.82 -436.33,-379.15 -527.56,-422.08 3.57,42.08 1.25,52.83 16.06,92.42 21.44,57.63 9.56,30.03 41.18,64.92l15.78 -60.06c670.81,678.79 1936.55,1349.5 3035.27,1600.72 194.22,44.34 207,25.68 287.03,188.28 242.23,492.26 39.19,1407.86 -554.26,1538.45 16.35,-935.84 -117.47,-904.57 -989.23,-1380.1 -249.92,-136.24 -454.09,-345.44 -669.91,-514.09 -398.33,-311.4 -222.83,-177.82 -466.31,-414.45l-162.09 -139.53c61.25,160.17 200.89,183.64 259.71,325.88 -57.97,32.81 -86.08,63.12 -148.07,110.51 -70.18,53.85 -74.93,56.67 -110.96,131.56l-730.71 -7.36c-61.87,-305.63 -113.74,-282.95 -25.22,-663.01 -847.11,-448.38 -778.34,-1309.9 -1150.82,-2024.61 -100.61,-193.14 -229.28,-218.08 672.06,-218.08 -153.21,-289.63 -781.15,-504.03 -1083.51,-504.03 -41.68,179.06 -327.68,369.59 -453.58,403.19 43.49,64.98 119.05,130.14 124.03,229 4.81,95.52 -64.36,178.71 -116.56,231.99 -202.76,206.88 -590.06,392.9 -759.27,651.93 -170.13,260.27 -104.92,318.3 -104.92,525.01 -159.26,-42.53 -408.22,-347.14 -490.12,-492.61 -192.29,-341.54 -112.26,-493.11 -89.47,-767.35 -208.41,-110.23 -237.25,-147.16 -397.36,-308.18 -118.32,-118.83 -186.07,-254.17 -266.39,-413.94 -202.47,-402.91 -292.51,-913.5 -469.81,-1268.9 -111.36,-223.28 -288.33,-248.79 579.82,-252.19 415.69,-1.64 739.42,89.82 1057.72,302.92 58.99,-253.26 226.51,-419.93 478.75,-478.69 -3.23,-147.05 -224.47,-826.35 -281.31,-1029.05 -51.02,-181.94 14.36,-470.15 -20.87,-634.22 -22.57,-105.31 -111.42,-78.22 -230.3,-97.22 -105.25,-16.97 -151.46,-28.62 -273.85,-28.62 -60.17,258.24 -439.61,558.89 -832.68,557.25 -26.13,-0.11 -68.26,-2.72 -93.54,-7.69 -51.02,-10.13 -32.64,-2.77 -41.91,-12.22l-0.23 0.23 -4.98 5.77 -7.4 -1.59c-131.55,-28.16 -246.31,-80.82 -333.52,-161.75 -80.65,-74.88 -137.54,-173.68 -162.37,-299.35 -26.41,-133.7 -47.23,-171.2 -78.16,-226.74 -15.95,-28.67 -34.45,-61.93 -57.58,-114.52 -52.65,-119.85 -23.81,-179.63 5.49,-240.26 14.02,-29.01 28.16,-58.36 31.84,-94.62l0.79 -7.8 4.64 -1.81c-75.45,-111.53 -119.05,-151.18 -186.18,-284.87 -302.24,-601.65 -51.58,-855.48 -33.26,-1075.43 -593.39,-397.36 -638.13,-1271.56 -723.13,-1922.75l-133.59 -748.35c105.93,0 668.5,96.14 730.71,126.06 -22.11,-266.27 -305.35,-407.55 -44.62,-977.01 117.81,-257.28 -38.18,-67.98 -185.73,-531.3 -38.23,-120.18 -73.3,-364.73 -72.62,-532.19l26.81 -604.37c2.82,-225.2 -26.19,-390.35 -26.19,-580.49 151.23,12.5 636.2,212.2 751.75,281.31 239.18,142.98 381.53,247.89 533.33,474.62 100.5,-67.36 100.44,-109.49 226.79,-176.45l0 -226.8c-315.93,-73.52 -614.32,-394.14 -629.47,-771.77 -2.1,-1.18 -4.19,-2.2 -6.28,-3.28l-9.22 -4.58 2.6 -10.06c7.24,-27.77 12.9,-57.41 18.72,-87.61 25.68,-133.36 53.79,-279.45 233.69,-398.16 38.01,-25.17 64.93,-34.5 89.7,-43.09 31.22,-10.92 58.82,-20.53 103.05,-63.23 6.44,-6.17 13.97,-6.39 19.23,-5.6 -3.68,-5.49 -1.81,-15.27 15.66,-34.11 170.24,-183.69 295.96,-101.52 375.88,-49.31 10.06,6.56 19.4,12.72 27.43,17.3 55.54,32.01 55.82,31.73 57.23,30.37 6.68,-6.5 17.14,-16.62 58.2,-15.44 90.72,2.72 120.12,37.27 160.05,84.1 14.43,17.03 30.37,35.69 51.53,54.98 50.44,45.92 90.32,56.33 129.79,66.68 73.02,19.06 144.73,37.83 270.74,248.11l5.37 8.94 -7.69 7.12c-1.75,1.64 -3.51,3.17 -5.26,4.81 38.35,168.37 11.65,392.95 -22.34,541.75 -103.61,453.76 -361.62,405.63 -538.42,421.18 -91.56,8.14 -68.43,-23.13 -85.17,47.05 0,0.06 22.79,112.44 24.66,115.21 66.4,97.28 305.86,51.75 416.25,216.61 -108.3,9.11 -45.41,-3.45 -125.95,50.51 0,142.35 66.06,583.38 100.79,690.78 -65.72,-0.11 -231.21,202.58 -453.7,216.44 -16.51,-563.42 -24.89,-392.39 309.14,-546.73 4.18,-1.92 12.44,-5.71 17.59,-9.96 -156.78,-28.9 -214.35,29.53 -328.03,79.81 14.14,-357.78 86.42,-331.99 163.33,-487.75 -155.41,65.38 -149.19,167.69 -206.48,318.87 -30.54,-161.87 -53.79,-256.15 -206.32,-284.26 39.08,94.79 48.01,17.08 111.98,133.36 76.24,138.51 101.58,519.76 74.03,682.08l-70.18 -128.9c-50.74,-47.67 8.59,-17.25 -85.69,-54.4 63.74,132.34 193.65,269.21 141.62,446.28 -20.87,70.98 -160.68,346.13 -199.93,397.99 -113.62,-63.28 -115.99,-16.91 -178.15,-138.67 -87.1,-170.75 -210.5,-480 -368.52,-609.46 46.03,-97.39 142.8,-171.7 113.28,-346.24 -23.13,-136.75 -109.55,-241.15 -249.53,-266.77 63.01,90.32 165.26,111.24 200.33,242.68 40.21,150.84 -14.48,254.22 -120.3,307.27 -30.6,-18.1 -377.85,-286.34 -400.53,-314.96 37.72,-159.09 173.4,-306.88 120.12,-523.83 -31.16,-127.08 -219.21,-266.55 -375.25,-288.1 57.41,80.65 85.01,68.89 180.98,127.6 300.71,184.2 121.99,529.99 21.1,635.69 -147.05,-58.42 -139.92,-200.44 -250.72,-273.28 40.72,319.54 700.51,571.16 868.94,926.79 -122.67,55.54 -322.21,46.72 -457.21,12.1 -181.88,-46.71 -291.04,-168.93 -383,-183.75 34.67,102.03 204.85,185.79 348.05,225.89 252.47,70.75 325.03,10.86 539.95,12.5l195 376.89 -356.81 81.05c-57.18,-80.88 -37.39,-173.07 -115.21,-234.15 -76.74,-60.17 -210.73,-44.34 -280.23,8.88 197.72,50.22 310.94,-90.72 328.36,259.93 -275.99,69.8 -408.84,264.97 -470.83,512.86 -9.45,37.84 -22.57,91.79 -28.79,129.4l12.16 127.42c48.19,-110.51 51.53,-266.44 104.46,-392.73 57.97,-138.62 120.01,-203.2 254.85,-273.67 110.56,-57.86 253.2,-104.24 394.36,-134.38 241.9,-51.86 239.46,-12.05 402.46,72.05 65.95,-253.99 153.95,-302.29 218.03,-561.55 485.7,-174.02 173.79,-56.61 465.29,-239.8 0,100.5 -18.27,280.92 -15.84,324.98 0.11,1.41 0.23,2.88 0.34,4.41l5.99 -3.73c41.8,-26.25 58.48,-47.23 76.13,-69.51 21.72,-27.49 44.85,-56.62 112.04,-98.02 163.11,-100.33 273.45,-64.36 360.72,-35.97 26.58,8.6 50.84,16.58 73.07,19.18 33.03,3.84 66.28,-1.93 99.71,-7.64 89.47,-15.61 180.02,-31.27 286.06,114.59 23.53,32.29 31.33,51.29 42.93,79.17 4.69,11.49 10.06,24.44 17.41,40.33 12.16,26.58 18.1,41.57 21.61,50.33 2.15,5.43 3.17,8.09 3.68,8.77 0.11,0.06 0.79,0.4 2.43,1.42 6.27,3.78 18.38,11.19 45.41,35.46 43.27,38.74 69.23,67.81 84.55,103.44 15.22,35.52 19.23,76.35 18.55,138.84 -0.79,79.69 31.85,121.43 64.93,163.85 52.77,67.58 106.67,136.58 48.13,342.56l-2.15 7.64 -7.8 1.41c-3.45,0.68 -6.9,1.36 -10.35,2.04 -88.23,159.71 -278.71,401.15 -420.33,489.44 -331.54,206.71 -536.38,-46.49 -655.26,-126.12 -88.01,23.52 -119.23,65.49 -184.49,117.92 -77.2,62.15 -115.6,56.44 -143.09,159.37 175.55,0 407.66,28.79 478.75,125.9 -351.1,29.29 75.79,610.86 100.84,968.92 -47.22,31.17 -153.89,181.72 -224.98,242.18 -78.44,66.68 -184.09,124.82 -308.69,156.6 -101.8,-724.66 -155.13,-545.15 311.8,-788.11 -111.02,-67.02 -221.42,29.41 -404.1,176.74 -67.52,-464.5 26.42,-474.79 120.02,-680.72 -175.78,51.53 -167.07,312.48 -193.99,514.44 7.52,-47.51 -62.78,-170.52 -102.82,-238.84 -55.82,-95.13 -92.7,-132.4 -242.91,-137.49l57.4 41.29c6,3.85 12.22,7.24 18.21,10.97 266.16,165.54 353.88,690.73 363.72,969.61 -105.65,-117.24 -218.71,-235.96 -364.68,-319.55 -68.03,-38.85 -77.2,-26.07 -115.09,-17.53 -6.39,1.36 -18.66,18.21 -23.36,11.03 -4.92,-7.64 -16.8,7.52 -24.03,13.18 130.02,22.56 240.36,100.61 319.77,169.33 467.83,404.88 129,620.93 92.47,1039 -200.33,-31.28 -218.31,-15.73 -314.63,-161.64 -360.26,-545.55 -421.85,-477.9 -610.92,-701.87 83.76,-149.59 174.76,-274.35 68.83,-494.25 -73.47,-152.42 -258.75,-281.42 -356.59,-221.53 143.48,70.81 260.5,115.49 323.79,251.28 76.74,164.81 19.28,328.37 -77.54,429.95 -25.96,-5.83 -552.11,-265.2 -625.41,-306.88 11.65,-206.71 177.99,-453.47 55.43,-709.39 -43.15,-90.21 -128.38,-162.6 -224.02,-204.79 -83.31,-36.93 -243.36,-115.6 -322.66,-57.24 197.5,57.52 427.63,108.76 507.26,278.6 81.72,174.37 14.53,506.52 -70.92,646.39 -221.53,-76.3 -301.34,-281.43 -390.75,-314.06 18.04,202.3 475.02,432.43 652.49,511.04 285.72,126.58 549.56,302.35 686.99,485.65 -104.91,95.13 -404.04,139.02 -571.73,132.01 -281.25,-11.88 -365.29,-119.28 -559.28,-161.7 78.21,133.36 379.83,203.15 559.57,210.22 307.55,11.88 411.95,-92.13 630.66,-122.44 81.33,69.17 299.01,355.51 333.63,471.34l-459.64 187.54c-36.25,-51.64 -133.25,-463.88 -472.08,-255.58 -55.71,34.22 -24.99,9.79 -58.87,51.81 113.56,-10.97 408.73,-210.79 476.26,246.08 -166.33,102.65 -321.35,225.88 -410.37,412.86 -70.47,148.06 -139.7,620.87 -59.9,718.21 17.99,-51.86 7.75,-13.24 12.22,-79.12 11.93,-177.31 -14.42,-331.2 50.16,-534.01 62.39,-195.86 171.82,-297.83 294.32,-386.85 134.44,-97.84 275.89,-167.18 444.26,-236.4 343.12,-141.28 248.45,-59.1 529.42,-3.34 22.23,-346.3 151.91,-444.53 154.46,-782.91 440.46,-183.58 423.55,-321.92 551.99,-414.11 10.97,113.85 50.39,184.6 50.39,319.66 545.26,-261.63 678.11,-22.57 856.72,25.11 120.35,-80.48 149.93,-128.61 317.05,-186.92 340.47,-118.99 634.57,-38.12 917.07,-39.25 168.25,-0.68 336.4,-0.62 504.54,-0.62 -6.28,282.05 -286.69,904.17 -629.93,1134.01 102.54,153.04 152.99,168.03 152.48,428.31 -0.45,246.69 -42.7,293.81 -127.25,453.52 -112.1,-45.13 16.34,-44.79 -112.38,-90.88 -77.03,-27.49 -422.53,57.57 -512.23,65.77 -53.34,-150.95 -142.53,-137.37 -177.76,-415.75l323.62 22.46c80.59,110.9 74.82,221.36 122.5,287.3 25.62,-120.63 -2.72,-207.61 -53.11,-279.22 221.82,-22.28 241.89,63.07 391.09,142.58 -39.76,-121.14 -91.34,-131.21 -212.88,-180.52 99.65,-83.6 177.14,-49.77 180.7,-202.42 -96.94,92.19 -63.68,111.64 -249.92,147.44 -132.35,25.4 -242.41,22.68 -377.69,16.4 77.99,-95.41 226.74,-165.31 237.93,-306.36 -120.4,86.87 -151.11,245.62 -348.16,286.29 -140.94,29.07 -380.91,-127.54 -444.48,-198.57 59.22,-206.44 199.31,-150.73 472.76,-356.88 80.76,-60.96 77.77,-78.44 157.57,-115.48 250.83,240.64 450.92,65.55 480.84,-111.25 -42.25,32.8 -15.55,9.56 -55.93,53.33 -113.63,123.01 -271.31,219.44 -386.28,25.34 21.54,-81.5 177.36,-239.52 228.54,-361.51 153.55,17.42 533.21,364.34 706.16,-217.69 -73.18,26.76 -5.99,-37.15 -74.25,69.46 -63.29,98.86 -90.38,304.5 -401.56,187.2 -28.61,-10.69 -58.42,-23.02 -85.51,-40.95 -32.52,-21.55 -28.28,-22.23 -43.15,-35.4 -3,-2.72 -10.8,-5.72 -12.9,-14.03 -2.15,-8.48 -8.76,-9.44 -12.66,-14.42 71.14,-123.35 189.4,-128.5 222.15,-214.01 -311.68,38.97 -472.3,663.24 -780.88,758.08 -81.1,-493.57 130.2,-568.45 167.52,-747.84 -276.67,134.66 -212.03,697.56 -224.02,796.31 -101.63,69.74 -183.18,125.78 -310.38,151.86l-49.99 -320.4c195.45,-32.63 281.76,-136.47 191.83,-336.11 -61.42,131.6 90.04,276.62 -212.7,282.44 -108.37,-251.56 -161.81,-352.46 -421.35,-434.47 -249.13,-78.72 -198.29,-20.3 -218.14,-4.97 311.74,78.67 440.97,90.49 554.71,350.02 192.35,438.88 67.53,557.31 32.97,701.81l348.84 176.97c244.72,115.15 90.26,308.46 289.85,452.96 -351.89,0 -468.12,-69.9 -591.18,-302.35 -202.59,135.57 -382.89,542.21 -469.76,790.26 -123.46,352.58 36.2,102.15 -48.87,681.74 -80.02,545.48 97.28,880.24 115.44,1098.15 157.68,-105.59 243.08,-272.6 478.75,-327.57 -16.23,-60.86 -76.01,-159.89 -108.87,-243.93 -118.15,-302.07 -35.52,-660.35 94.73,-779.46zm-2947.39 -393.3c-5.14,37.16 -19.28,66.35 -33.31,95.36 -26.69,55.31 -53.05,109.78 -5.09,218.82l0 0.05c22.62,51.58 40.83,84.22 56.44,112.27 32.18,57.85 53.85,96.82 80.99,234.31 23.7,120.07 77.94,214.35 154.68,285.5 81.95,76.18 189.92,126.23 314.01,153.89 44.22,-50.68 83.36,-90.72 120.63,-128.84 70.24,-71.82 133.64,-136.52 210.67,-252.8 44.97,-67.82 97.62,-157.74 141.73,-252.7 34.73,-74.65 64.14,-152.36 80.31,-224.7 37.28,-166.44 3.91,-355.17 -61.42,-525.8 -81.83,-213.56 -213.33,-398.05 -318.97,-474.74 -56,6.84 -101.75,19.46 -140.26,38.4 -39.2,19.34 -71.04,45.47 -98.7,79.29 -28.61,34.96 -41,63.46 -58.19,103.16l0 0.06c-3.34,7.58 -6.85,15.67 -11.2,25.39 -49.83,111.76 -109.04,130.59 -162.88,147.73 -48.59,15.38 -92.19,29.35 -117.08,127.76 -5.14,20.36 -5.76,40.1 -6.39,58.99 -2.03,64.19 -3.84,120.63 -145.97,178.6zm1586.92 -5295.44c21.83,132 72.56,268.14 135.28,391.88 76.13,149.93 169.79,281.2 251,363.72 38.8,39.42 97.79,73.18 165.49,99.93 76.91,30.6 164.75,52.09 246.98,62.84 173.46,22.9 265.53,-1.25 377.8,-30.66 41.51,-10.8 85.74,-22.39 137.43,-32.63 51.58,-187.65 2.43,-250.6 -45.7,-312.25 -35.86,-45.87 -71.26,-91.22 -70.3,-179.85 0.57,-58.7 -3,-96.77 -16.63,-128.44 -13.51,-31.67 -37.61,-58.31 -77.99,-94.56 -25.11,-22.57 -36.02,-29.13 -41.68,-32.58 -4.3,-2.71 -6.67,-4.07 -9.45,-7.8l0 -0.06c-2.6,-3.39 -4.07,-6.96 -7.12,-14.7 -3.39,-8.54 -9.11,-22.97 -21.1,-49.21 -7.63,-16.46 -13.06,-29.58 -17.81,-41.11 -10.8,-26.25 -18.16,-43.89 -40.04,-73.98 -96.6,-132.85 -179.29,-118.54 -260.96,-104.4 -35.17,6.1 -70.24,12.21 -106.89,7.97 -24.83,-3 -50.28,-11.2 -78.1,-20.36 -82.29,-26.75 -186.41,-60.68 -339.34,33.43 -63.23,39.02 -85.01,66.39 -105.42,92.13 -18.04,22.79 -35.12,44.34 -75.45,70.69zm-1357.07 -2295.74c48.47,25.22 100.84,57.86 157.22,93.04 192.92,120.4 433.17,270.34 705.72,236.63 60.17,-7.47 126.8,-30.71 190.87,-60.46 84.39,-39.25 164.19,-89.7 219.44,-130.65 89.7,-66.28 130.14,-126.23 170.8,-186.52 30.49,-45.25 61.14,-90.55 112.16,-139.19 -117.25,-193.02 -182.96,-210.22 -249.81,-227.69 -42.53,-11.09 -85.57,-22.34 -140.66,-72.51 -22.23,-20.19 -38.74,-39.64 -53.73,-57.18 -35.69,-41.96 -61.98,-72.78 -141.28,-75.22 -30.2,-0.9 -35.85,4.7 -39.47,8.2l0 0c-12.95,12.67 -15.56,15.27 -88,-26.58 -9.11,-5.2 -18.5,-11.37 -28.68,-17.98l-0.06 0c-72.84,-47.62 -187.48,-122.45 -343.01,45.24 -2.04,2.32 -5.32,2.21 -8.43,1.42 1.36,3.73 -0.05,8.54 -5.77,16.06 0.17,0.39 0.12,0.73 -0.34,1.02l-0.79 0.45c-4.41,5.65 -11.08,12.67 -20.53,21.77 -48.3,46.61 -78.39,57.13 -112.43,69 -23.3,8.03 -48.64,16.86 -83.99,40.21l-0.06 0c-170.8,112.78 -197.83,253.38 -222.54,381.59 -5.15,26.98 -10.24,53.39 -16.63,79.35zm18136.94 3155.4l-29.3 61.65 -1.13 1.3c-22.57,26.86 -37.27,44.11 -51.47,60.85 -71.65,84.5 -138.33,163.11 -217.34,269.44 -34.84,46.88 -69.12,103.67 -103.5,160.73 -41.18,68.32 -82.58,136.81 -126.46,190.71l-476.49 1411.82c-1.98,40.83 -34.16,253.32 -67.87,461.61 -33.2,204.91 -68.15,406.48 -77.88,438.2l-2.09 102.6 12.61 -18.89c155.48,-350.82 233.41,-562.97 294.43,-729.18 119.34,-324.92 174.37,-474.63 614.77,-1135.66l380.57 -541.98 31.22 -75.33c-3.67,-120.3 -15.61,-230.47 -27.15,-336.8 -12.55,-116.05 -24.65,-227.52 -25.11,-343.35 -17.59,-12.39 -30.42,-20.14 -46.15,-29.53l-15.1 -9.16 -66.56 60.97zm-2551.55 4229.47l-211.81 225.37c-92.13,97.17 -163.27,199.03 -227.41,290.76 -43.26,61.87 -83.42,119.34 -124.54,167.8 -3.28,3.51 -6.39,7.24 -9.61,10.75 -16.63,202.7 -20.02,390.18 -23.42,575.86 -4.97,274.18 -9.89,544.52 -56.55,850.38 -58.37,382.38 -132.68,634 -196.2,848.92 -38.4,130.08 -72.9,246.7 -97.27,370.44 142.12,-97.11 305.8,-291.72 456.63,-515.79 182.68,-271.59 345.96,-585.99 429.1,-823.02 25.96,-74.08 50.22,-176.79 74.48,-279.72 30.2,-128.1 60.46,-256.43 94.85,-332.44l21.09 -48.02c4.13,-50.39 9.79,-90.15 15.22,-127.82 8.25,-58.19 15.89,-111.53 15.89,-191.84l-0.06 0c0,-65.38 0.46,-120.69 2.49,-175.83 1.98,-54.35 5.43,-107.4 11.43,-168.6 6.1,-62.15 -0.17,-222.26 -6.28,-378.87 -4.19,-106.83 -8.32,-212.03 -8.49,-283.01l-30.14 -49.2c-47.05,13.01 -46.77,11.93 -46.89,12.27 -1.35,5.49 -2.43,9.73 -21.2,15.22 0.34,0.9 0.45,1.81 0.45,2.71 11.25,9.45 12.67,15.04 -15.55,16.63 -2.72,0.11 -5.32,-0.68 -11.43,-2.6 -5.82,-1.81 -16,-4.92 -34.78,-10.35zm2373.68 -1708.8c-25.28,30.82 -30.21,33.48 -37.78,37.61 -2.89,1.58 -6.34,3.39 -13.58,9.61l-23.02 22.96c-71.31,65.61 -130.7,116.91 -183.3,162.32 -170.17,146.88 -268.81,232.05 -490.17,564.15 -20.98,31.62 -38.46,60.52 -55.03,87.95 -35.97,59.72 -67.53,112.04 -124.48,172.21l-2.32 3.11c-3.62,4.81 -8.37,11.2 -13.63,13.8 -2.15,1.19 -4.24,1.87 -6.22,2.1l-0.17 0.22c-1.7,2.26 -3.45,4.47 -5.32,6.45l-18.66 60.8 -16.4 423.44 805.48 -607.42 0.73 -0.57c30.65,-19.9 67.76,-41.73 106.1,-64.24 72.79,-42.82 149.99,-88.29 194.84,-127.65l1.07 -0.85 112.21 -61.03c3.56,-97.56 37.67,-218.87 66.28,-320.67 9.17,-32.69 17.82,-63.29 24.72,-90.77 14.93,-59.39 34.84,-141.4 51.07,-222.16 16.06,-79.86 28.79,-159.2 30.09,-216.04 -14.93,-39.37 -1.36,-44.85 -8.2,-42.08l-0.06 0c-5.03,2.03 -12.95,5.2 -28.33,-6.17 -48.7,12.79 -112.38,40.95 -174.71,73.53 -75.95,39.7 -149.53,85.96 -191.21,119.39zm17.47 -6735.77c33.99,22 83.14,8.37 51.75,110.23 -22.51,72.96 -134.32,53.33 -113.23,-46.21 20.42,-96.14 -5.88,-27.43 61.48,-64.02zm-2367.62 5227.07c-78.56,-210.62 -182.68,-328.43 -126.97,-432.66 80.02,50.16 87.55,113.73 128.21,212.14 177.81,430.45 302.52,697.97 460.99,1176.38 330.86,998.96 185.45,2009.96 81.61,2996.08 101.18,-51.07 140.15,-129.06 201.97,-204l544.24 -588.24c78.78,-179.35 20.87,-1201.32 -5.2,-1439.31 -45.42,-414.62 -138.4,-846.31 -263.56,-1226.99 -115.77,-352.07 -231.82,-823.58 -626.25,-866 172.56,379.33 292.97,656.51 390.7,1082.61l232.1 1037.64c25.74,158.58 -45.98,157.4 -61.19,169.78 -81.61,-770.3 -372.54,-1599.98 -647.06,-2299.87 -49.6,-126.52 -264.74,-335.72 -482.37,-271.53 -61.31,18.1 -327.47,273.23 -404.16,332.56 -142.12,110.05 -120.91,231.09 -178.15,553.63 -27.26,153.32 -127.14,524.33 -69.17,611.88 107.12,-220 575.97,-727.26 824.26,-844.1zm-7472.08 12425.12c60.52,61.2 61.87,60.74 128.04,111.7l388.38 367.11c-49.26,73.52 -396.86,289.51 -504.94,351.78 -92.41,53.17 -181.66,105.42 -276.16,152.25 -53.51,26.36 -94.57,49.94 -147.56,79.24 -44.17,24.43 -107.85,59.33 -154.85,71.94 70.92,105.93 509.18,427.51 655.15,554.36 100.44,-53.21 162.26,-104.68 262.59,-165.76 272.6,-166 524.51,-375.03 770.53,-539.78 91.05,24.26 438.76,307.56 549.39,382.89l559.34 373.05 515 -392.11c72.9,-55.65 115.44,-69.79 140.09,-162.32l-588.18 -318.86c-169.79,-92.3 -494.48,-341.04 -570.89,-361.46 50.4,-75.27 450.19,-432.03 526.21,-453.58l-47.28 -174.76 64.19 88.4c120.91,200.27 240.59,364.51 503.63,407.55 -67.13,-1160.88 441.14,-968.65 1177.06,-1499.66 68.2,-49.14 112.2,-93.43 177.92,-150.04 286.12,-246.64 1034.87,-793.66 1170.16,-1154.04 -888.67,594.58 -1699.13,1001.9 -2862.1,1149.12 -177.59,22.51 -252.24,69.34 -300.37,379.78 -35.58,229.22 1.98,401.72 20.87,619.97 -112.49,-121.99 -70.7,-380.91 -77.32,-548.26 -94.95,63.23 -228.99,222.83 -335.32,320.05l-119.16 107.69c-128.33,107.06 -362.31,371.01 -503.24,403.75 -86.76,-58.02 -156.21,-118.94 -232.73,-195.68 -55.32,-55.37 -67.53,-57.97 -123.81,-102.94 -46.77,-37.32 -72.67,-67.01 -115.99,-110.79l-280.86 -273.39c-19.97,-20.87 -35.41,-40.95 -59.5,-66.8 -40.16,-43.26 -71.21,-73.35 -112.27,-107.06 -9.1,183.41 -4.35,310.61 -51.46,488.59 -37.84,143.2 -104.8,237.6 -144.56,368.07zm-7370.9 -9775.11c240.88,-114.87 400.82,-161.64 504.26,-406.3 94.51,-9.11 488.31,81.1 574.9,127.36 25.67,291.61 -13.52,923 -23.36,1246.56l-413.15 20.48c72.17,-381.65 91.51,-682.75 -335.72,-869.5 -93.48,-40.95 -232.61,-65.16 -306.93,-118.6zm653.06 -721.55c59.89,-60.63 143.2,-91.39 203.26,-136.98 77.03,-58.65 101.41,-108.76 178.95,-152.87l43.26 461.9 -425.47 -172.05zm574.73 -621.56c88.06,41.01 110.4,86.99 152.08,189.86 134.49,332.44 62.72,493.52 259.25,798.7 -38.91,85.34 -94.39,154.45 -137.2,238.49 -48.47,95.25 -73.53,191.62 -115.72,281.66 -51.52,-91.34 -31.05,-600.52 -49.6,-765.89 -30.31,-270.51 -82.06,-496.85 -108.81,-742.82zm-2455.23 -1783.17c28.1,-373.44 525.86,-441.08 828.61,-526.03 100.44,-28.28 262.02,-113.22 323.56,-117.07 171.47,129.23 232.9,546.73 215.7,810.29 -87.66,47.05 -156.83,73.41 -232.84,142.57 -34.9,31.73 -63.91,60.92 -95.58,106.56l-88.85 122.44c-197.04,-135.34 -204.57,-254.5 -678.06,-440.06 -85.79,-33.6 -198.29,-56.96 -272.54,-98.7zm1372.28 -985.72c166.56,-40.95 175.72,-95.3 287.25,-154.57 -19.28,262.03 -51.18,357.61 60.92,597.18 77.93,166.45 137.48,139.98 -3,351.39 -58.59,88.17 -16.4,50.62 -88.91,97.9 -74.71,-392.28 -240.53,-796.49 -256.26,-891.9zm5139.69 10106.08c-100.61,-26.58 -177.64,-79.91 -263.55,-130.81 -87.78,-51.86 -160.96,-80.71 -214.58,-155.36 137.09,20.08 47.06,3.39 77.26,-14.82 -31.67,-43.04 -78.45,-104.97 -111.7,-134.04 -100.62,-88.23 -83.2,-27.94 -174.87,-67.64 130.75,-118.26 327.57,144.16 353.59,220 -5.43,-180.07 -47.4,-354.38 86.64,-468.79 -18.21,240.19 -133.02,307.1 27.83,587.05l25.73 -15.44c72.73,-60.06 189.18,-241.04 292.28,-171.64 -146.93,117.97 -169.1,40.32 -245.51,226.79 83.42,44.39 100.22,32.8 146.88,124.7zm-2537.63 2979.85c-83.26,48.98 -73.92,133.65 -25.17,225.83 45.7,-21.77 58.02,19.69 63.96,-104.12 3.68,-76.18 -5.65,-78.16 -38.79,-121.71zm352.8 22.97c55.87,-23.25 98.86,4.01 25.16,-99.66 -37.83,15.95 -27.65,-32.29 -46.88,31 -37.1,122.04 -7.02,37.21 21.72,68.66zm1007.89 131.32c89.41,-63.63 58.76,-178.32 27.65,-257.62 -59.15,18.95 -69.11,4.42 -78.44,97.79 -9.1,91.74 -6.11,113.4 50.79,159.83zm680.37 -150.84c27.66,-42.13 54.41,56.84 25.28,-57.85 -20.7,-81.73 10.86,-20.36 -55.7,-47.51 -70.02,121.09 -26.81,79.4 30.42,105.36zm907.11 274.59c57.41,-75.22 57.8,-150.84 0,-224.59 -0.45,0.28 -93.37,7.8 -46.99,164.69 31.16,105.14 3.39,24.6 46.99,59.9zm551.77 70.07c16.91,91.68 19.79,62.32 78.16,74.65 41.96,-85.17 57.07,-198.79 -50.39,-230.24 -25.9,48.41 -40.67,85.35 -27.77,155.59zm2058.37 -1299.16c58.14,36.87 88.23,57.97 171.82,24.04 91.96,-37.22 79.75,-102.77 79.58,-194.16 -145.41,20.53 -271.47,21.83 -251.4,170.12zm-1786.62 -423.67c103.11,-206.54 -51.86,-471.79 -205.01,-383.68 -108.82,62.61 -72.06,441.03 205.01,383.68zm-1352.94 -673.41c92.92,40.89 161.01,122.89 295.79,96.42 128.38,-341.65 -75.67,-506.12 -287.14,-612.84l-8.65 516.42zm6289.65 332.55c64.98,-16.12 92.98,-26.64 160.17,-54.97 124.42,-52.38 105.36,-20.42 98.46,-124.37 -136.36,-89.25 -245.45,38.51 -258.63,179.34zm850.33 1634.76c-46.1,21.55 -130.99,61.31 -65.61,156.44 30.65,44.51 121.2,57.57 189.52,27.37 151.68,-67.13 70.02,-274.41 -123.91,-183.81zm1935.13 232.34c-119.95,125.1 151.52,241.44 232.51,153.72 94.05,-101.8 -133.14,-257.28 -232.51,-153.72zm-7835.51 400.64c-148.23,21.67 -215.19,-12.21 -252.63,-160.56 -23.64,-93.6 -29.36,-284.48 62.55,-331.7 114.92,-58.94 199.59,72.22 222.66,146.42 44.28,142.47 15.21,243.82 -32.58,345.84zm-634.56 -125.72l-193.54 -38.18c-5.82,-1.81 -14.76,-5.76 -19.4,-7.35 -4.63,-1.58 -13.17,-4.41 -19.06,-8.09l-3.56 -579.47c-0.11,-136.47 10.41,-71.83 33.94,-99.49 111.02,26.92 75.05,42.7 74.42,175.05 19.91,94.22 153.22,-27.26 193.48,205.58 33.09,191.39 4.08,242.46 -66.28,351.95zm-2990.31 -582.76l9.05 -190.88 103.66 -9.95 1.81 702.37 -114.52 3.68c-62.16,10.92 -8.54,30.43 -141.39,29.07 -54.58,-122.5 -138.85,-476.6 110.39,-528.18l31 -6.11zm1381.56 450.13c-153.89,6.57 -199.81,-62.26 -211.69,-222.66 -10.58,-141.67 27.15,-279.84 122.67,-311.17 209.54,-68.55 274.07,353.59 89.02,533.83zm-2452.97 -84.15c-8.31,-162.83 12.84,-129.63 70.47,-226 68.26,-114.3 8.54,-118.49 141.96,-144.05 2.26,127.48 1.41,254.67 1.58,382.04 0.4,334.08 32.52,296.86 -83.19,324.58 -29.81,-44.91 -15.78,11.02 -26.19,-72.23 -2.66,-21.21 -1.07,-76.23 -0.9,-100.27 0.56,-77.94 0.73,-154.12 -0.91,-232.11l-102.82 68.04zm4263.29 265.81c-104.63,-31.38 -75.05,-55.14 -74.37,-354.61l1.3 -151.28 207.67 50.5c-13.35,266.21 -82.46,-75.28 -97.62,328.82 -4.18,111.13 -9.67,93.38 -36.98,126.57zm-1242.83 -354.61c44.85,155.03 30.59,31.96 169.78,62.16 5.77,21.55 51.24,-46.21 0,74.26 -9.95,23.47 -20.7,37.84 -50.62,51.92 -51.07,23.92 -116.05,11.71 -155.02,-17.53 -74.71,-56.22 -93.71,-228.66 -75.16,-341.32 42.36,-257.9 307.38,-258.75 319.6,153.15l-169.16 5.6c-6.22,1.02 -15.16,4.41 -20.02,5.49 -4.81,1.02 -13.18,3.5 -19.4,6.27zm-1663.61 25.23c43.94,143.82 26.64,30.31 183.52,33.37 -4.24,127.25 -77.59,171.82 -211.69,152.76 -168.25,-170.75 -93.03,-604.71 136.19,-518.51 99.31,46.49 95.3,108.98 99.54,281.7 -39.25,10.64 -55.26,8.43 -100.1,17.42 -54.58,10.86 7.52,-5.2 -45.14,9.22 -7.58,2.1 -14.76,4.75 -21.49,6.85l-40.83 17.19zm1974.1 186.07c-55.76,-32.18 -50.45,47.39 -50.22,-211.3l0.34 -309.25c128.33,9.17 49.09,32.86 148.74,24.44 12.39,-1.13 36.94,-8.37 65.38,-0.8 82.69,22 7.69,31.73 83.54,37.11 29.35,2.09 208.41,-171.31 184.48,377.62 -6.27,143.32 17.08,94.45 -54.29,127.59 -50.34,-24.94 -60.8,-15.94 -58.31,-180.92 1.81,-118.77 22.85,-139.24 -42.47,-196.31 -72.06,101.24 -2.55,232.28 -50.4,348.67 -208.24,-8.71 -12.21,-220.4 -126,-374.06 -120.75,115.15 41.9,295.22 -100.79,357.21zm-1436.31 -38.01l-75.61 1.36c-35.69,-92.07 -24.1,-589.66 -8.71,-712.72l109.38 -7.47c46.37,97.67 81.78,289.23 140.26,335.66 21.21,-281.08 -49.09,-297.43 61.48,-346.18 76.46,31.96 52.82,-18.21 60.06,124.65l-15.05 598.88c-209.99,4.58 -95.69,-152.19 -243.53,-318.87 -5.37,101.97 16.12,249.81 -28.28,324.69zm-1461.47 180.93c-20.7,-32.07 -12.95,3 -21.04,-56.11l25.9 -216.15c20.81,-95.19 53.62,-171.71 74.2,-268.25l-171.93 27.6 -2.49 -157.12 309.99 -70.01c5.71,194.78 -93.49,271.58 -126.12,579.59 -13.29,125.55 18.66,133.41 -88.51,160.45zm2293.02 -179.91c-81.15,-40.1 -48.69,-23.58 -99.2,-250.71l-46.54 -207.28c-1.76,-122.45 -11.26,-19.46 19.74,-70.42 142.91,20.25 45.98,-25.05 137.03,294.04l51.7 -278.65 100.95 -4.58 -86.87 424.62c-26.13,97.34 -10.86,70.76 -76.81,92.98zm-3685.5 -324.8c184.32,99.82 799.14,50.16 904.39,495.72 -210.84,94.73 -421.57,465.17 -441.82,806.94 184.83,-67.69 388.89,-173 592.21,-256.82 197.15,-81.38 422.08,-156.21 638.01,-217.35 1385.98,-392.5 2715.39,-333.91 4050.35,187.66 117.98,46.09 247.04,127.14 319.72,95.47 92.47,-296.25 -14.37,-701.59 -174.31,-845.86 -286.06,-258.01 -661.82,-357.44 -998.73,-614.09 -84.33,-64.25 -227.81,-203.61 -314.46,-236.07 -200.77,-75.22 -735.17,-104.91 -965.08,-114.87 -626.3,-27.31 -1332.35,68.83 -1931.51,206.94 -300.88,69.4 -571.51,154.86 -852.65,231.38 -269.77,73.46 -572.35,204.73 -826.12,260.95zm13874.56 141.62c210.5,137.71 263.83,502.33 -15.16,556.57 -242.63,47.11 -577.33,-53.33 -651.76,-229.34 52.49,0.28 153.78,2.38 203.32,13.18 125.61,27.26 281.31,241.89 326.11,-28.62 -356.2,21.95 -628.12,-140.6 -538.42,-336.11 88,-191.73 549.45,-58.26 675.91,24.32zm-3621.54 144.21c4.97,-146.53 -17.25,-115.94 105.13,-165.82 356.99,-145.46 154.01,-187.6 521.63,-209.43 -13.47,634.51 67.13,639.26 -329.73,656.85l11.54 -385.15c-115.55,31.11 -164.41,83.82 -308.57,103.55zm1495.63 -80.08c-197.72,71.04 -691.8,106.27 -533.16,-208.58 78.17,-155.02 446.01,-242.17 668.5,-158.41 252.87,95.12 224.31,458.56 28.39,577.15 -166.84,101.13 -604.08,123.13 -696.49,-38.57 285.89,-174.19 500.92,186.92 532.76,-171.59zm581.63 -375.08c151.74,6.05 588.64,47.34 699.6,118.37l-9.16 111.81c-238.72,8.15 -422.59,-125.16 -490.17,-11.14 79.91,68.72 215.36,-0.17 409.13,119.96 121.31,75.16 177.13,220 27.65,316.15 -208.18,133.87 -745.81,38.06 -780.99,-174.76l268.08 3.45c145.01,169.33 317.51,139.58 294.66,-58.76 -76.01,-58.6 -111.7,-64.31 -243.76,-53.68 -132.4,10.69 -160.96,-3.45 -289.28,-26.86l114.24 -344.54zm-2886.36 1385.92c110.17,-19.57 742.7,-284.03 1269.41,-395.17 1003.09,-211.46 1973.31,-163.95 2955.64,106.05 605.72,166.56 706.22,261.69 1195.49,446.23 -1.52,-132.51 -83.7,-353.88 -135.62,-448.49 -109.55,-199.65 -201.62,-217.69 -285.83,-346.3 58.93,-143.26 183.97,-237.31 355.68,-303.71 161.75,-62.66 368.24,-60.06 532.37,-124.54l-753.28 -228.88c-822.39,-258.07 -1843.01,-449.68 -2702.89,-433.79 -311.12,5.77 -645.77,40.67 -949.59,96.09 -220.51,40.27 -212.99,69.11 -349.69,174.42 -105.98,81.73 -202.3,128.5 -334.41,194.95 -615.68,310.1 -869.11,402.8 -797.28,1263.14zm-267.17 -3109.93l-8.71 1103.41 -331.26 22.57 1.76 -1097.48 338.21 -28.5zm-1898.72 531.91c38.46,-161.07 134.66,-186.41 312.02,-190.88 136.59,-3.39 305.97,-2.71 403.93,63.06 165.77,111.47 122.1,532.59 142.47,770.81 -151.92,11.71 -195.35,18.04 -280.36,-27.66 -39.25,-21.15 -10.12,-22.51 -63.28,-36.47 -201,123.46 -581.01,69.79 -549.51,-222.38 29.64,-275.32 431.64,-120.07 568.79,-280.86 -23.75,-69 -29.69,-82.46 -118.82,-81.39 -163.11,2.04 -113.74,147.27 -358.06,37.89 -78.67,-35.17 -17.87,-3.84 -57.18,-32.12zm-1012.19 -374.63l248.85 49.03c33.08,56.84 16.62,62.05 43.38,115.32 171.59,-115.37 410.71,-98.46 500.24,88.23 61.64,128.61 36.42,523.83 34.55,698.3l-298.39 -51.92c-6.33,-126.17 -0.51,-249.24 -2.26,-374.74 -2.26,-158.41 -13.4,-231.65 -183.7,-198.68 -86.13,125.38 -36.53,363.43 -54.4,530.78l-295.45 -80.54 7.18 -775.78zm3442.48 147.22c61.19,-84.84 337.64,-311.29 482.54,-128.84 76.01,95.75 46.26,515.57 42.76,660.24 -81.16,39.53 -193.88,76.58 -302.35,83.42 -1.59,-153.32 14.53,-391.43 -23.25,-512.51 -309.25,-38.35 -175.78,333 -213.84,592.77l-294.83 50.61c-1.98,-206.88 -1.81,-414.27 -3,-621.1 -0.84,-150.89 -25.73,-168.26 113.57,-195.4 174.31,-34.11 132.34,-24.55 198.4,70.81zm-4349.42 -370.45c236.29,-75.22 535.59,119.84 629.19,235.62 126.69,156.71 214.18,533.21 -41.68,609.84 -480.28,143.94 -1031.65,-703.95 -587.51,-845.46zm5891.38 287.19c-130.82,424.35 -1006.09,727.6 -856.38,71.32 90.09,-394.88 901.62,-824.03 898.46,-212.76 -107.91,53.22 -199.31,100.16 -316.33,155.24 -224.86,106.05 -273.22,80.37 -275.76,189.69 123.57,85.86 179.45,4.25 261.23,-74.99 74.2,-71.83 193.82,-110.68 288.78,-128.5zm-7166.5 -1275.4c93.99,31.56 508.61,274.07 616.52,344.54 174.08,113.62 339,280.86 373.67,561.61 116.11,940.14 -797.39,102.93 -995.34,7.12l5.15 -913.27zm6493.98 895.51c108.14,-173.28 111.36,-254.22 369.71,-318.47l139.08 127.2c-134.16,88 -142.98,50.05 -270.17,24.94 -51.3,105.42 -86.59,168.43 -238.62,166.33zm1359.96 -82.4c-143.6,27.26 -314.85,148.07 -417.78,142.92 -380.74,-19.17 289.17,-742.59 652.89,-649.27 -8.66,90.1 -9.11,57.63 -94.85,121.43 -278.09,206.43 -333.29,71.88 -387.3,263.89 203.66,-32.8 295.68,-191.95 508.05,-158.81 107.68,284.37 -557.7,837.66 -797.33,697.34 2.2,-96.37 26.58,-85.4 106.38,-137.03 322.26,-208.75 359.08,-18.1 429.94,-280.47zm-3091.72 -14954.67l-19.96 74.2 -267.97 -30.09 -473.66 -21.09 -263.61 -8.32 -18.94 5.49c-147.79,-46.21 -364.57,2.15 -534.12,-14.48l377.12 -28.67c-27.15,-89.36 -179.12,-228.83 -258.18,-296.76 -94.11,-80.76 -70.02,-22.79 -108.99,-119.39l1014.79 -8.42c-4.69,13.34 -12.1,14.81 -15.49,28.5 -3.28,13.12 -10.86,16.57 -15.39,21.95l-174.19 166.55c-89.36,84.9 -139.52,109.5 -172.44,205.64 182.28,5.66 802.25,54.98 931.03,24.89zm723.76 -1734.7c-48.13,49.88 -54.35,66.56 -63.52,176.4 -120.29,0 -104.46,-17.14 -201.56,-25.23 2.6,-116.5 25.22,-97.11 25.22,-377.96 -126.23,0 -157.23,-25.12 -305.29,-25.12 -31.45,-16.23 -43.83,-22.84 -57.97,-25.22l-85.63 0 -4.69 0 176.4 503.86c-133.14,-11.03 -316.32,-52.43 -453.64,-75.61 -200.38,-33.77 -263.5,-87.95 -363.6,64.47 -123.69,188.16 -78.62,164.98 -366.89,162.6 -184.65,-1.47 -369.82,-0.23 -554.59,-0.23 -40.1,-59.95 -69.96,-111.07 -100.9,-174.19 -78.55,-86.93 16.07,-29.13 -121.54,-58.88 -155.02,-33.59 -345.44,-18.83 -508.27,-18.83l0 -51.58c3.34,-4.86 9.95,-17.59 10.29,-14.48 0.34,3.17 7.02,-12.61 7.24,-16.62 3.23,-56.96 4.64,-18.39 -6.95,-68.55 67.19,-62.44 62.43,-60.57 65.04,-176.4 -96.04,-2.09 -263.44,-59.27 -375.82,-22.85 -71.38,23.19 -60.35,47.51 -43.89,137.38 14.93,81.44 16.51,93.48 16.51,187.82l-200.88 29.47 -0.68 -281.49c-131.38,0 -188.05,-21.2 -252.02,34.84l-151.06 -11.31 45.13 254.39c0.68,6.17 1.36,13.46 1.87,19.29l3.16 55.65c-105.53,1.7 -97.89,6.9 -176.28,25.11 -16.63,-62.32 -115.83,-235.44 -151.18,-302.35 -120.46,0 -246.98,36.99 -327.57,75.62 76.86,114.81 78.16,153.21 151.17,196.19 15.16,16.69 33.31,42.98 34.28,43.89 50.78,51.58 4.24,19.51 54.35,43.77 46.71,104.24 211.91,308.46 215.19,349.35 3,37.33 -145.69,321.64 -186.8,383.68 -27.38,33.37 -220.06,53.34 -274.19,63.91 -97.44,19.06 -196.48,49.55 -283.69,72.45 -302.74,79.24 -1344.85,399.46 -1470.75,560.25 571.34,295.62 521.74,263.61 799.2,163.96 108.82,-39.08 803.9,-222.38 835.4,-261.8 168.37,-5.09 50.67,-11.6 84.44,38.29l-30.54 88 -216.05 426.32 245.68 -75.56c113.85,-25.28 223.63,-56.67 341.15,-82.12 52.94,-11.48 111.7,-19.45 163.85,-34.44 98.35,-28.17 76.8,0.56 109.26,-74.88l51.3 51.97c-66,65.66 -225.66,75.39 -334.7,101.92l-943.7 277.41c-65.44,-162.83 -0.51,-28.73 -134.72,-134.78 -62.78,-49.6 -4.64,19.57 -35.86,-44.79 161.92,52.54 340.98,167.18 485.94,1.36 45.35,-51.98 199.58,-375.25 221.13,-453.13 -352.46,86.13 -664.48,204.51 -978.94,319.37l52.77 36.37c-128.15,-4.53 -1097.19,-442.56 -1188.31,-519.98l28.51 -744.12c-109.78,24.94 -342.85,86.87 -318.36,215.03 -40.78,75.16 -24.04,35.4 3.22,32.46 23.48,135.46 72.57,148.92 100.73,269.95 -135.17,31.5 -181.77,166.5 -403.13,-252.02 -104.12,24.27 -226.06,100.05 -277.19,176.4l289.57 464.67c75.56,90.94 5.32,28.11 88.29,64.53 -23.81,106.95 146.2,273.17 211.41,368.58 52.65,77.03 25.96,67.08 91.05,104.01 150.95,-2.72 155.82,-104.01 302.41,-143.66l344.2 209.89c39.25,29.86 32.01,25.5 57.97,52.54l-43.43 -13.69c-79.01,-81.22 -272.77,-192.01 -394.71,-34.22 -51.69,66.97 -76.13,123.86 -42.64,213.33l127.64 193.54 89.76 146.43c99.14,-19.23 81.84,-5.77 145.29,-63.35 31.17,-8.82 8.66,12.05 51.87,-19.06 34.95,-25.22 18.72,-14.82 42.3,-43.43l50.22 -17.48 54.92 -4.13 -156.95 106.84c-56.5,29.92 -126,69 -178.49,95.69 29.86,107.35 73.13,148.46 122.05,235.67 143.15,-27.94 165.48,-112.09 316.66,-154.96 131.04,-54.07 275.88,-141.28 413.43,-208.92 1222.13,-600.58 2460.38,-692.54 3795,-790.95l392.67 -14.93 302.58 9.22c236.4,0 818.99,63.57 1043.86,126.8 360.66,-0.22 1243.39,296.92 1598.12,426.55 676.3,247.1 1291.69,677.77 1316.97,687.28 55.37,-44.74 61.14,-67.36 98.07,-132.06 -122.95,-55.15 -27.32,-3 -72.73,-66.74 87.38,-144.05 147.33,-230.13 231.66,-356.65 40.72,-61.02 67.01,-103.95 110.73,-166.38 57.58,-82.29 67.7,-77.32 107.69,-166.17 7.63,-127.31 -23.25,-210.33 -123.01,-274.07l-68.27 -30.03c-4.58,-2.09 -13.46,-6.51 -17.13,-8.26 -3.68,-1.7 -11.26,-5.65 -16.63,-8.88l75.78 -30.71 223.52 148.12 80.25 -47.62c64.13,-47.84 176.85,-240.65 231.82,-323.11l174.08 -256.14c47.06,-83.53 41.01,-18.95 22.63,-101.63l44.96 -106.38 -145.86 -81.11c-95.86,64.03 -122.56,139.81 -228.32,187.26l-132.28 -78.89 56.33 -351.16 -323.9 -137.21 -0.45 720.7c-236.3,78.56 -970.57,491.14 -1145.9,493.63l111.76 -78.11 -1044.43 -306.87c32.52,128.43 96.88,220.96 151.35,327.17 66.22,129.35 83.59,188 193.93,257.45 -103.61,0.96 -198.06,-44.79 -288.1,-80.31l142.29 11.59c-30.99,-139.07 -90.26,-225.88 -154.28,-353.36 -37.89,-75.56 -115.55,-254.39 -175.84,-305.75 -48.58,-146.7 -169.1,-352.06 -241.15,-490.17 -48.7,-93.32 -61.48,-127.54 -116.85,-235.5 -42.47,-82.8 -115.77,-162.21 -66.9,-233.75 23.69,-22.17 58.36,-58.82 97.73,-103.67 -92.19,143.15 -150.45,107.06 50.95,451.32 53.05,90.83 42.19,70.58 171.65,97.62 169.5,26.75 405.12,92.41 570.37,138.9 161.36,45.25 438.03,152.93 578.24,164.13 26.52,30.2 435.77,183.86 509.97,212.09 266.1,100.84 232.22,198.34 521.45,51.35 92.81,-47.11 74.26,-19.34 94.73,-97 45.19,-171.14 -105.87,-216.32 -264.91,-301.78 -250.32,-134.32 -261.01,-225.27 -478.58,-41.74l-304.33 -92.02c-99.88,-28.84 -566.47,-158.02 -611.26,-234.71l-53.17 -174.02c-13.63,-31.79 -17.76,-34.9 -27.71,-48.92l-489.95 -91.57 -261.74 -40.21c117.18,-134.55 272.26,-337.7 303.37,-447.64l-268.31 -54.41c-27.09,26.35 -17.7,17.81 -43.77,47.85 -13.29,15.38 -26.53,33.19 -32.18,39.42 -56.84,74.93 -103.11,158.81 -125.95,256.99 -61.14,-14.14 -101.18,-26.36 -151.24,-50.39 32.41,-139.19 50.4,-200.55 50.4,-377.91 -91.23,-21.27 -78.17,-25.29 -201.46,-25.29 -14.59,-24.99 29.07,-13.96 -47.62,-33.08 -78.22,-19.4 -28.33,-14.54 -57.18,7.52 -39.36,30.09 -45.58,110.46 -33.42,176.8zm2667.6 2404.33c244.55,-52.26 260.44,86.02 159.83,232.16l-119.11 2.94c-92.92,-93.88 -94.62,-105.36 -40.72,-235.1zm-261.8 35.23c-60.91,95.58 -70.19,144.96 -16.74,240.48 64.64,115.6 54.23,26.13 128.15,127.71l13.07 9.72c-93.21,-26.47 -369.03,-174.93 -441.76,-239.12 156.83,-39.64 171.53,-93.32 317.28,-138.79zm201.73 217.18c-33.48,-44.96 -11.93,41.79 -42.19,-86.93 -77.31,-329.16 317.57,-256.2 359.19,-215.37 18.16,17.82 66.23,178.1 2.66,275.72 -72.67,111.7 -237.99,113.05 -319.66,26.58zm423.33 -6.45c24.89,-140.2 37.55,-228.83 -36.42,-316.49 -46.77,-55.54 -123.18,-122.61 -224.53,-83.65 55.42,-72.56 117.75,-86.7 213.1,-105.02 10.47,12.89 361.23,300.77 47.85,505.16zm-6262.84 -1169.47c56.16,52.99 44.51,140.65 -2.26,186.52 -113.46,111.36 -300.88,-56.1 -179.46,-179 61.82,-62.5 145.92,-41.34 181.72,-7.52zm4420.96 -316.66l-443.79 -113.85c26.24,163.56 96.93,256.37 165.42,389.22 118.15,229.22 59.27,137.09 309.08,209.77 416.66,17.3 854.46,370.73 1129.66,232.05 72.34,-36.54 268.59,-121.03 331.26,-167.86 -178.1,-96.2 -515.91,-231.54 -725.4,-300.65 -94.79,-31.17 -712.89,-216.16 -766.23,-248.68zm-1677.18 307.72c24.94,-52.94 47.57,-99.88 98.86,-138.73 622.18,-181.95 547.13,333.79 500.3,402.62 -39.42,58.09 -29.52,36.54 -81.61,61.93 7.3,-65.32 161.3,-374.35 -120.75,-435.77 -310.44,-67.47 -410.82,258.18 -195.06,425.2l31.44 22.73 -186.92 -45.81c-50.67,-115.2 -40.66,-148.63 -46.26,-292.17zm246.36 192.69c-4.98,-79.12 -27.65,-115.26 34.61,-150.78 39.82,-22.62 98.75,-10.24 124.94,17.3 114.3,120.07 -68.1,140.6 -159.55,133.48zm-3018.59 141.62l-180.25 4.35c-56.44,-90.49 -144.55,-117.58 -108.92,-296.81 21.49,-108.13 107.11,-200.15 258.69,-182.73 176.51,20.25 343.63,281.54 97.22,453.3l-50.85 36.7 -15.89 -14.81zm129.63 -531.86c-228.32,-43.89 -430.45,-30.49 -495.55,151.4 -29.01,81.16 -36.42,214.52 -2.15,300.03 37.44,93.6 98.18,104.97 221.82,114.59 -153.16,37.72 -276.23,75.67 -383.01,-26.08 -77.48,-169.5 115.95,-529.03 198.46,-683.99 271.76,-31.73 365.64,-76.92 460.43,144.05zm-2094.35 -94.68c236.01,-32.69 563.76,-150.15 831.78,-199.19 203.77,-37.33 178.32,-70.19 261.63,-240.65 82.63,-169.16 -31.11,-187.99 -107.97,-344.2 -149.93,-9.22 -294.09,49.2 -441.76,80.76 -292.34,62.67 -209.6,5.49 -233.75,292.4 -58.87,37.38 -173.06,62.61 -238.44,102.14l-75.45 10.29c-82.17,-26.63 -480.44,105.71 -504.93,151.97l-124.99 65.72c-114.59,-60.52 -107.29,-141.96 -229.51,-233.63l-586.6 232.95c-42.7,101.29 -43.21,278.26 -35.07,413.71 289.85,237.37 396.24,88.34 532.09,29.3l952.97 -361.57zm12542.2 1286.78c-44.56,-75.11 -46.88,-67.65 -0.45,-144.17 121.43,28.62 119.28,113.63 0.45,144.17zm-73.07 -47.4l100.05 102.2c151.51,-106.04 135.85,-168.48 -24.43,-253.37l-75.62 151.17zm-688.63 -499.34l-68.15 -4.63c1.58,-142.3 -30.94,-52.88 62.04,-81.16l8.37 101.18 -2.26 -15.39zm1066.6 1661.58c57.8,75.05 50.84,55.03 0,124.65 -31.22,-10.69 -76.69,-2.72 -65.04,-71.94 7.92,-47.17 22.06,-38.01 65.04,-52.71zm-100.79 47.22c0,170.58 176.4,168.2 176.4,0 0,-133.41 -176.4,-130.25 -176.4,0zm-881.94 -1134.12c23.19,30.76 33.54,-39.31 25.74,51.01 -4.59,52.88 -3.57,21.83 -25.74,52.14 -73.24,-40.72 -83.7,-61.47 0,-103.15zm-100.78 0.28l0 100.73c107.8,74.99 75.39,67.64 176.4,0l0 -100.73c-48.19,-33.48 -81.78,-92.64 -176.4,0zm25.17 1315.9c92.69,39.36 83.13,82.57 0,123.07 -25.62,-33.43 -28.39,43.77 -30.32,-55.15 -1.64,-81.21 16.69,-52.48 30.32,-67.92zm-89.36 95.24c31.05,81.55 -1.42,34.95 64.19,79.46 127.99,-19.06 125.95,-43.66 125.95,-180.3 -51.92,-27.43 -59.67,-34.9 -125.95,-50.45 -62.33,93.04 -27.54,45.36 -64.19,151.29zm618.56 -1553.16c0.05,0.06 135.45,7.92 25.28,161.76 -108.2,-22.12 -139.08,-86.76 -25.28,-161.76zm-100.84 91.63c0,100.1 49.82,100.78 176.4,100.78 34.55,-144.22 40.72,-52.15 0,-226.79l-151.18 0c-13.18,56.5 -25.22,57.97 -25.22,126.01zm-193.65 504.93c-74.43,-29.24 -110.4,-25.73 -33.09,-120.35 84.61,37.72 61.7,54.63 33.09,120.35zm-108.71 -7.01l25.23 31.28c-36.08,0 -25.23,7.97 -25.23,-31.28zm25.23 31.28c36.59,20.53 26.64,12.16 75.56,25.11 41.85,-29.07 41.11,-26.64 87.26,-50.34 25.29,64.7 57.07,169.61 63.97,251.96 -98.8,-52.26 -195.12,-108.02 -226.79,-226.73zm376.44 -252.02c117.98,-40.27 165.77,129.51 3.73,146.59 -37.38,-70.35 -53.33,-66.56 -3.73,-146.59zm258.35 527.11c-29.75,-106.39 -46.72,-141.96 70.69,-152.48 51.64,79.52 37.56,34.05 18.72,135.57l-89.41 16.91zm-21.15 72.5l-34.11 134.04c-126.06,-1.41 -111.19,-50.16 -66.9,-144.27 56.78,-0.97 58.08,0.67 101.01,10.23zm-635.87 76.92c-2.03,62.55 -21.94,41.85 -28.22,50.39 -44.68,-10.97 -80.65,-4.52 -74.37,-71.49 9.5,-101.69 30.43,-48.24 74.37,-58.65 21.49,32.58 32.01,-41.68 28.22,79.75zm1156.13 -452.28c54.69,71.26 61.53,74.14 0,151.91 -60.01,-9.11 -83.65,7.52 -84.21,-73.53 -0.74,-95.29 32.91,-69.11 84.21,-78.38zm-126.01 52.88c0,122.27 1.47,78.21 50.39,151.17l100.79 0c73.24,-109.21 73.24,-142.63 0,-251.9l-100.79 0c-30.48,45.47 -50.39,44.23 -50.39,100.73zm-1437.21 280.35c96.43,10.29 127.99,34.27 76.52,143.03l-84.38 15.38c-23.02,-71.43 -24.55,-96.14 7.86,-158.41zm-74.71 97.61c0,110.63 71.2,100.79 176.4,100.79 21.38,-44.46 29.12,-81.44 50.39,-125.9 -141.62,-267.74 -226.79,-53.9 -226.79,25.11zm624.55 72.4c66.34,7.91 103.67,3.73 103.73,78.95 0.05,75.73 -37.11,71.43 -103.56,78.61 -33.37,-83.98 -32.86,-73.07 -0.17,-157.56zm836.98 -45.53c-46.32,-84.78 -34.78,-76.52 2.55,-146.31 131.32,12.67 153.6,147.72 -2.55,146.31zm-75.62 -127.59c0,151.91 -20.92,176.34 176.4,176.34 54.3,-102.59 88.68,-133.87 -36.25,-240.87 -2.77,-2.38 -9.61,-7.19 -14.14,-11.09 -56.16,29.75 -75.9,42.08 -126.01,75.62zm-347.71 -1232.94c13.3,51.64 -9.1,93.38 -43.6,110.4 -98.8,48.64 -93.77,-101.12 -68.49,-165.93 76.01,2.71 93.43,-16.97 112.09,55.53zm-181.43 23.36c0,32.58 15.44,65.33 34.44,91.57l66.35 59.61c56.16,-29.64 75.89,-41.97 126,-75.5 0,-124.77 -1.18,-108.59 -50.39,-201.63l-126.01 0c-16.79,31.79 -50.39,83.31 -50.39,125.95zm-190.99 2176.18c-166.73,-18.21 -143.03,-141.33 -12.72,-155.36 35.74,66.8 34.66,77.83 12.72,155.36zm-161.75 -84.72c0,42.7 33.54,94.23 50.39,126.07l125.95 0c5.43,-10.3 50.45,-97.96 50.45,-100.84 0,-202.19 -226.79,-169.56 -226.79,-25.23zm-121.03 -2142.92l13.01 130.13c-70.08,-12.38 -86.25,5.15 -96.49,-56.16 -11.99,-71.94 31.84,-62.72 83.48,-73.97zm-226.85 -302.3c23.92,69.06 30.77,30.99 -4.92,102.54 -19.68,-4.13 -71.54,19.11 -67.25,-47.74 3.34,-51.18 24.55,-39.75 72.17,-54.8zm95.86 -32.86c-48.13,-76.07 -31.78,-56.72 -9.5,-122.67 130.87,31.22 116.73,105.25 9.5,122.67zm-75.61 -16.51c-68.04,5.65 -68.49,11.76 -125.95,25.17 0,92.92 -22.29,176.4 75.61,176.4 106.95,0 88.4,-90.38 75.56,-151.18 221.93,51.69 177.02,-201.57 75.62,-201.57 -89.76,0 -98.81,59.73 -100.84,151.18zm1138.08 1181.07c42.7,74.65 34.45,52.09 4.81,135.28 -69.73,-8.26 -108.36,-1.53 -105.99,-81.21 0.8,-27.04 14.6,-54.64 33.6,-64.99 80.14,-43.83 67.07,10.63 67.58,10.92zm111.76 -86.19c-109.15,-17.59 -158.19,-43.5 -65.49,-155.87 111.58,15.32 100.05,48.41 65.49,155.87zm-141.11 13.8c-101.52,27.2 -82.06,43.03 -126.01,126.06 27.49,51.86 35.01,59.67 50.39,125.95 206.78,0 192.13,-51.3 151.24,-226.73 108.36,-9.05 45.41,3.5 126,-50.4 0,-241.83 -201.62,-334.3 -201.62,25.12zm-1234.68 -53.73l-75.22 10.57c-110.29,-191.22 160.67,-203.15 75.22,-10.57zm107.28 -174.59c66.91,13.17 83.37,-3.4 93.38,55.31 11.82,69.9 -31.84,61.42 -82.24,73.41l-11.14 -128.72zm-56.89 26.8l-100.05 -51.74 -101.52 76.86c0,108.75 -25.51,176.4 125.95,176.4 69.74,0 60.63,-19.35 75.62,-75.56 163.39,13.57 157.96,61.19 201.56,-125.96 -67.58,-71.26 -130.87,-130.64 -201.56,0zm-32.86 -224.07c-1.98,-5.15 -3.79,-10.24 -5.49,-14.99 -1.69,-4.86 -3.22,-9.61 -4.64,-14.08 -1.41,-4.64 -2.71,-8.94 -3.9,-13.29 -1.19,-4.19 -2.2,-8.32 -3.17,-12.33 -0.9,-4.02 -1.69,-7.81 -2.43,-11.54 -0.68,-3.62 -1.24,-7.24 -1.75,-10.69 -0.45,-3.39 -0.85,-6.73 -1.08,-9.9 -0.28,-3.16 -0.45,-6.16 -0.5,-9.16 -0.06,-2.88 -0.06,-5.65 0.11,-8.31 0.11,-2.72 0.34,-5.21 0.62,-7.64 0.34,-2.49 0.74,-4.75 1.19,-7.01 0.51,-2.15 1.07,-4.24 1.7,-6.22 0.62,-1.98 1.35,-3.79 2.14,-5.54 0.8,-1.76 1.64,-3.4 2.61,-4.98 0.9,-1.47 1.92,-2.89 2.99,-4.24 1.02,-1.3 2.15,-2.61 3.34,-3.68 1.19,-1.13 2.43,-2.15 3.73,-3.11 1.3,-0.96 2.6,-1.75 4.02,-2.49 1.41,-0.79 2.83,-1.36 4.3,-1.92 1.52,-0.62 3.05,-1.08 4.58,-1.47 1.58,-0.45 3.17,-0.68 4.81,-0.96 1.64,-0.23 3.28,-0.34 4.97,-0.4 1.7,-0.06 3.4,-0.06 5.15,0.06 1.75,0 3.51,0.22 5.32,0.39 1.75,0.29 3.56,0.63 5.37,0.96 1.81,0.4 3.62,0.8 5.43,1.36 1.86,0.4 3.67,1.08 5.48,1.7 1.87,0.62 3.68,1.3 5.55,2.03 1.81,0.74 3.67,1.53 5.48,2.44 1.81,0.79 3.62,1.75 5.43,2.77 1.81,0.96 3.62,1.98 5.37,3.05 1.76,1.02 3.51,2.09 5.26,3.34 1.7,1.13 3.45,2.26 5.09,3.51 1.7,1.3 3.34,2.54 4.98,3.84 1.58,1.36 3.17,2.72 4.7,4.07 1.58,1.42 3.05,2.83 4.52,4.36 1.47,1.41 2.88,2.88 4.24,4.47 1.36,1.41 2.72,3.05 3.96,4.58 1.25,1.58 2.49,3.11 3.62,4.75 1.19,1.64 2.26,3.28 3.28,4.86 1.02,1.64 1.98,3.34 2.89,5.04 0.9,1.69 1.75,3.39 2.48,5.09 0.74,1.69 1.42,3.45 2.04,5.14 0.62,1.7 1.13,3.4 1.58,5.15 0.4,1.7 0.79,3.45 1.02,5.15 0.28,1.75 0.45,3.5 0.51,5.2 0.11,1.81 0.11,3.56 0,5.26 -0.11,1.69 -0.34,3.45 -0.68,5.14 -0.28,1.7 -0.73,3.4 -1.24,5.09 -0.57,1.59 -1.19,3.29 -1.98,4.93 -0.74,1.69 -1.59,3.33 -2.6,4.92 -0.97,1.58 -2.1,3.22 -3.34,4.75 -1.19,1.58 -2.6,3.11 -4.07,4.69 -1.47,1.47 -3.11,3 -4.87,4.41 -1.75,1.47 -3.62,2.89 -5.65,4.36 -2.04,1.41 -4.19,2.77 -6.51,4.13 -2.32,1.24 -4.8,2.54 -7.41,3.84 -2.6,1.25 -5.37,2.43 -8.25,3.56 -2.94,1.25 -6,2.27 -9.22,3.34 -3.22,1.08 -6.62,2.09 -10.18,3.11 -3.56,0.96 -7.3,1.92 -11.14,2.77 -3.91,0.91 -7.98,1.7 -12.22,2.49 -4.24,0.74 -8.65,1.47 -13.23,2.09 -4.58,0.57 -9.34,1.19 -14.31,1.76zm-37.5 -259.88c-0.96,-5.49 -1.81,-10.69 -2.6,-15.78 -0.79,-5.09 -1.47,-9.95 -2.04,-14.7 -0.62,-4.75 -1.07,-9.22 -1.47,-13.63 -0.39,-4.42 -0.73,-8.6 -0.96,-12.67 -0.22,-4.07 -0.34,-7.92 -0.39,-11.65 -0.06,-3.74 -0.06,-7.3 0.05,-10.81 0.12,-3.33 0.28,-6.61 0.57,-9.72 0.22,-3.11 0.56,-6.11 0.96,-8.88 0.39,-2.83 0.9,-5.49 1.41,-8.09 0.57,-2.49 1.19,-4.92 1.81,-7.18 0.68,-2.21 1.42,-4.3 2.21,-6.34 0.79,-1.98 1.64,-3.84 2.49,-5.54 0.9,-1.81 1.86,-3.34 2.88,-4.86 0.96,-1.47 2.04,-2.89 3.11,-4.02 1.13,-1.24 2.26,-2.37 3.45,-3.39 1.19,-1.02 2.38,-1.98 3.68,-2.72 1.24,-0.85 2.54,-1.41 3.84,-2.03 1.36,-0.63 2.72,-1.02 4.08,-1.42 1.41,-0.34 2.82,-0.62 4.29,-0.85 1.42,-0.11 2.89,-0.17 4.42,-0.17 1.47,0 2.99,0.12 4.52,0.23 1.53,0.23 3.05,0.51 4.64,0.91 1.52,0.34 3.11,0.73 4.69,1.3 1.59,0.45 3.17,1.07 4.75,1.75 1.59,0.68 3.17,1.36 4.81,2.26 1.58,0.79 3.17,1.59 4.75,2.55 1.58,1.02 3.22,1.98 4.81,3.05 1.53,1.02 3.11,2.15 4.69,3.39 1.53,1.08 3.11,2.38 4.64,3.68 1.53,1.25 3.05,2.55 4.52,3.96 1.53,1.36 3,2.77 4.47,4.3 1.42,1.47 2.89,2.94 4.24,4.52 1.42,1.47 2.78,3.06 4.13,4.7 1.36,1.58 2.66,3.22 3.91,4.92 1.3,1.69 2.48,3.39 3.67,5.09 1.25,1.69 2.38,3.45 3.45,5.2 1.13,1.75 2.21,3.62 3.23,5.37 1.01,1.76 1.97,3.57 2.88,5.43 0.9,1.81 1.75,3.62 2.54,5.49 0.8,1.81 1.59,3.62 2.27,5.54 0.68,1.75 1.3,3.68 1.81,5.49 0.56,1.81 1.07,3.67 1.47,5.43 0.45,1.86 0.79,3.73 1.07,5.48 0.28,1.76 0.51,3.57 0.62,5.38 0.12,1.81 0.17,3.5 0.12,5.26 0,1.69 -0.12,3.39 -0.34,5.09 -0.17,1.75 -0.45,3.39 -0.85,5.03 -0.4,1.53 -0.85,3.17 -1.41,4.69 -0.57,1.59 -1.19,3.17 -1.98,4.64 -0.74,1.41 -1.59,2.83 -2.55,4.24 -0.96,1.47 -1.98,2.83 -3.17,4.07 -1.13,1.31 -2.43,2.61 -3.79,3.74 -1.35,1.24 -2.88,2.37 -4.46,3.45 -1.59,1.07 -3.34,2.09 -5.15,3.11 -1.87,0.96 -3.79,1.92 -5.88,2.66 -2.09,0.9 -4.3,1.64 -6.62,2.37 -2.32,0.68 -4.75,1.36 -7.35,1.81 -2.6,0.57 -5.32,1.02 -8.15,1.47 -2.82,0.4 -5.82,0.74 -8.93,0.91 -3.17,0.22 -6.39,0.34 -9.84,0.45 -3.4,0.06 -6.96,0.06 -10.64,-0.17 -3.67,-0.06 -7.52,-0.34 -11.53,-0.68 -4.02,-0.34 -8.15,-0.73 -12.45,-1.3 -4.29,-0.45 -8.76,-1.13 -13.4,-1.81zm-55.65 -70.47c0,93.09 14.76,85.23 75.62,126.07 -171.43,323.89 204.73,309.3 161.41,113.73 -20.36,-92.02 -34.39,-46.26 -47.45,-97.9l11.99 -217.46 -100.05 -51.75c-43.72,30.15 -101.52,56.16 -101.52,127.31zm298.5 980.92l83.37 -1.02c26.98,72.28 27.09,84.15 -2.38,153.04 -124.65,-7.63 -119.84,-46.04 -80.99,-152.02zm-222.88 105.08c-58.48,-94.51 -15.44,-182.23 59.89,-139.02 53.39,30.54 82.51,133.48 -59.89,139.02zm604.75 -1183.39c-61.02,-99.09 -13.57,-183.41 58.43,-139.58 21.49,13.18 48.07,61.19 30.65,100.78 -34.05,77.37 -17.31,35.18 -89.08,38.8zm-96.09 -181.43c-10.8,66.51 -29.29,46.71 -103.04,60.91l7.35 -145.3c43.15,10.24 110.51,-7.18 95.69,84.39zm481.7 6784.97l294.71 -408.11 -294.71 408.11zm-13285.58 1420.08c6.22,61.02 17.76,111.81 37.1,143.88l3549.32 -4.08 184.48 -985.83c109.67,159.37 152.2,757.91 232.9,984.65l746.38 -4.87 60.06 -115.66 809.89 -59.72c38.86,6.67 29.24,46.49 129.12,76.86 141.11,42.81 33.2,-20.59 123.01,95.81l352.35 11.14 498.37 4.69c534.46,-29.18 328.15,-212.42 649.22,-149.36l-26.58 145.4 1041.03 3.12c-0.96,55.99 -2.09,112.15 -3.45,168.42 -15.66,663.07 -59.72,1345.42 -204.73,1988.41 -137.94,611.89 -363.44,1141.77 -678.96,1683.86 -533.11,915.65 -1311.32,1723.11 -2359.09,2011.26 -1175.41,323.34 -2368.93,-45.81 -3289.95,-810.45 -876.79,-728.05 -1426.98,-1774.01 -1670.06,-2876.75 -101.74,-461.39 -131.04,-999.12 -153.21,-1470.98 -8.2,-174.87 -14.65,-350.02 -19.68,-525.35 -3,-104.74 -5.48,-209.65 -7.52,-314.45zm2672.01 -1727.58l-84.72 -0.11 -34.5 -69.62c-14.53,-125.9 -26.07,-227.08 32.58,-322.71 48.01,-111.02 61.64,-125.73 195.12,-153.05 85.79,105.42 108.08,43.33 203.6,19.57 101.41,-25.11 166.05,3.68 193.93,92.92 27.32,30.83 60.35,69.8 81.1,122.17 9.05,22.96 21.84,55.31 20.87,84.27 -4.07,125.04 4.3,38.4 -30.82,73.97l-11.82 94.56 -2.09 3.51c5.37,96.03 40.89,120.13 94.16,177.64 119.68,15.05 187.26,-31.72 196.48,102.49 5.88,85.28 8.88,188.95 14.37,278.54 -39.2,29.8 52.48,24.94 -87.5,36.81l3.85 59.33 61.82 231.43c-137.32,124.99 -335.78,94.9 -535.31,112.27 -280.01,24.43 -297.49,-6.85 -521.4,-75.85 12.11,-110.62 40.27,-126.34 86.82,-262.98l30.6 -76.47 -10.86 -136.75 -22.17 -57.86c-50.73,57.18 -36.2,37.27 -37.5,143.31 -1.81,146.49 9.16,118.77 -38.06,189.58 -48.36,-56.33 -44.12,-34.1 -41.91,-162.48 4.81,-287.88 17.25,-204.23 166.05,-306.54 1.7,-27.15 10.52,-92.36 11.31,-114.87l-11.14 -83.19 77.14 0.11zm118.83 -595.37l5.09 36.48c143.99,98.86 141.67,-20.81 265.19,-71.04 -21.1,-55.48 16.18,-20.64 -32.18,-53.1 27.32,-15.27 30.88,-27.09 46.38,-35.24 166.72,-180.36 -44.34,-487.46 -296.02,-413.65 -74.37,21.72 -180.02,144.11 -193.14,226 -29.75,185.62 82.51,159.66 107.91,313.1l96.77 -2.55zm2676.93 665.61l-35.29 -153.32 -35.07 -279.16c15.1,4.07 24.44,3.22 27.43,14.36 25.68,96.77 -9.78,-48.18 76.92,94.11 33.54,55.09 32.75,35.86 -14.53,71.15l152.3 53.62c-30.82,97.44 -104.29,121.08 -171.76,199.24zm-785.34 -35.34c66.39,-118.04 42.36,-100.11 155.3,-158.36 -42.47,-26.02 -54.75,25.96 0.4,-254.62l17.47 -57.01c1.25,-3.28 5.77,-9.33 8.77,-14.02 24.6,46.54 58.93,123.35 76.75,170.34 45.92,121.66 27.54,75.28 89.69,165.88l-58.48 -9.55 -40.77 168.65c-1.87,-4.02 -9.11,14.19 -13.58,21.21l-38.06 188.1 -66.85 48.59c-45.81,-94 -109.77,-170.41 -130.64,-269.21zm2460.15 -1292.21c163.22,421.8 630.15,285.39 849.25,271.87 168.37,347.88 93.32,119.62 85.06,418.69 -3.39,123.12 -26.64,51.41 40.78,86.76 46.49,-101.58 -4.36,-142.24 64.53,-284.88 1.98,39.7 28.11,79.46 23.75,181.72 -4.97,115.88 -48.75,116.62 34.96,150.27 101.01,-139.7 -47.06,-458.11 55.19,-494.7 6.28,83.19 24.32,76.86 38.92,152.42 12.49,64.47 10.68,101.35 30.65,149.87 25.39,-28.45 49.2,-60.85 68.71,-97.56l-0.56 27.04c-17.48,29.12 -37.55,55.42 -58.65,79.06l-13.63 15.16 -7.75 -18.89c-13.74,-33.43 -17.59,-61.08 -22.22,-94.96 -2.38,-16.91 -4.93,-35.46 -9.17,-57.29 -6.05,-31.5 -12.78,-48.24 -18.89,-63.57 -7.35,-18.32 -13.91,-34.78 -18.09,-68.38 -22.51,28.06 -14.54,97.96 -5.43,177.19 12.04,105.65 25.9,226.68 -28.68,302.13l-5.88 8.14 -9.33 -3.79c-66.68,-26.8 -64.59,-36.3 -54.01,-83.59 3.96,-17.98 9.5,-42.7 11.02,-79.01 2.83,-65.54 -7.23,-104.68 -14.98,-134.88l-0.79 -2.94c-20.82,54.4 -22.17,91.79 -23.42,126.74 -1.36,37.27 -2.6,71.94 -24.6,119.96l-5.66 12.27 -11.93 -6.17c-21.89,-11.53 -31.5,-9.89 -35.69,-9.21 -8.31,1.41 -12.61,2.14 -17.19,-7.53l0 0c-2.09,-4.46 -1.53,-7.86 -0.4,-14.93 1.47,-8.99 4.58,-27.88 5.66,-66.79 2.83,-103.73 13.69,-145.29 19.85,-168.77 3.05,-11.76 4.81,-18.26 3.28,-25.62 -2.26,-11.08 -10.91,-27.88 -30.43,-65.6 -16.23,-31.45 -39.64,-76.81 -72.78,-144.96 -30.26,2.15 -65.67,6.68 -104.13,11.49 -140.71,17.58 -322.08,40.15 -477.5,-15.39l-3.06 3.51c-1.13,1.3 -4.41,4.86 55.49,33.14l6.78 3.17 0.57 7.52c3.62,51.24 10.69,156.94 12.21,259.54 1.53,103.44 -2.77,203.32 -22.45,240.82l-0.73 1.07c-12.39,18.66 -19.06,31.56 -23.81,40.72 -6.06,11.65 -9.51,18.32 -17.25,23.87l-0.06 0c-9.5,6.9 -21.66,8.99 -49.94,14.02l-24.15 4.19 -7.24 1.3 -68.49 -80.71 3.4 -7.41c3.95,-8.59 7.97,-17.64 11.08,-24.77 6.22,-14.08 9.05,-20.58 13.63,-25.96 4.36,-5.14 8.43,-7.52 16.01,-11.7 4.52,-2.61 10.63,-6 18.94,-11.32l-41.74 -491.02 14.09 0.23c26.41,0.28 45.69,0.11 59.66,0.05 -92.3,-44.9 -172.04,-123.01 -223.45,-253.99 -4.02,-3.51 -7.58,-6.9 -10.8,-10.13l-245.63 -28.67 -120.24 17.82c-67.07,-94.74 -93.66,-140.72 -128.83,-231.49 -133.82,-89.42 -250.55,-374.8 -554.99,-261.18 -246.19,91.79 -250.38,288.89 -375.54,526.26 -267.06,-18.89 -336.57,-60.01 -476.54,-284.03 -211.47,-66.17 -164.07,-45.3 -354.95,0.68 -102.71,-95.8 -209.03,-325.2 -447.82,-268.81 -198.62,46.83 -250.09,256.94 -358.51,375.93 -42.87,-35.91 -64.64,-40.78 -75.78,-98.29 -135.34,-59.39 -261.01,-181.78 -438.54,-35.07 -106.22,87.66 -187.6,208.69 -235,349.12 -41.62,-33.08 -9.95,-1.07 -44.62,-45.41 -68.88,-87.95 -86.47,-174.31 -253.99,-305.75 -155.93,-122.44 -193.77,-8.82 -305.18,-174.02 -61.82,-91.51 14.59,-10.01 -78.62,-91.45 8.43,-91.51 -5.65,-10.3 33.71,-45.25l3.11 -80.65c94.79,-57.97 58.31,26.41 116,-66.34 36.59,-58.87 -1.75,-55.48 60.68,-145.57 37.11,-53.51 75.85,-29.53 47.85,-130.37 -34.38,-123.91 -63.45,31.39 -52.6,-111.13l-11.76 -92.47c-151.91,12.27 -70.7,114.98 -308.23,149.54 1.52,-285.39 228.09,-86.59 193.99,-451.55l-184.43 -101.63c-53.22,74.2 -81.45,97.27 -141.96,181.32 -70.58,97.84 -227.19,167.23 -198.68,24.65 15.77,-78.67 81.1,-34.66 92.69,-188.44 0.28,-4.19 -15.66,-168.26 -15.83,-168.6 -28.45,-73.58 11.99,-7.63 -44.85,-52.25l-54.41 -31.56c20.13,-105.99 26.81,-226.06 -21.66,-303.37l3.05 -22.4c-4.07,-5.71 -9.5,-21.55 -11.03,-17.36 -13.8,38.91 -6.61,-19.68 -39.36,-72.73 -54.52,70.86 -19.34,46.03 -76.63,117.97 -32.07,161.13 -64.99,-24.99 -60.86,229.79l-1.36 118.49 -129.96 35.86c-50.06,14.02 -39.54,10.51 -79.13,33.82l-6.16 188.1 -142.52 -59.44 -15.39 -104.06c-114.18,44.79 -92.58,185.5 -107.85,145.01 -1.41,-3.73 -5.88,12.1 -18.04,18.83l-41.06 -214.52c-144.28,44.4 2.37,45.59 -162.32,73.13 -25,104.74 8.94,118.77 -65.89,156.1 -35.29,-73.98 -25.28,-140.49 -13.17,-224.36 -27.55,-26.36 -11.88,-8.66 -35.97,-46.89 -75.39,-119.45 0,-64.42 -76.86,-116.9 -72.74,127.53 21.43,146.03 -100.79,200.95 -52.99,-66.74 -41.57,-53.56 -49.88,-158.25l-50.9 -203.83c-120.18,48.19 -16.8,48.81 -121.77,99.54l11.2 -271.08c-110.79,-93.65 82.4,86.2 -25.68,-23.13 -25.11,-25.39 -28.73,-36.93 -33.36,-41.34 -55.71,-52.99 50.27,-53.62 -107.58,-41.68 -55.99,93.77 -16.57,212.31 -28.9,335.77l-92.75 67.19 81.16 277.24 -168.26 66.06c-72.33,264.69 -26.86,242.4 -169.21,153.89 -2.89,6.17 -3.51,15.38 -5.04,19.85 -1.52,4.47 -3.67,14.25 -5.71,19.57 -49.37,131.95 28.68,24.89 -50.9,89.59l3.96 104.63 -91.9 50.27c-39.54,276.57 -20.42,114.42 72.22,302.41 -104.18,68.21 -83.71,-4.41 -71.26,126.07l211.8 40.83 -5.94 198.68c-152.87,-56.72 -16.79,-56.89 -160,-92.3 -48.07,179.23 59.11,50.34 -57,255.87l51.35 164.74 -79.92 -28.33c8.26,-514.21 20.08,-1031.14 15.27,-1545.35l-11.48 -1223.09c1180.79,738.23 2835.86,551.82 4018.57,-85.46 79.97,-43.09 163,-101.97 244.83,-152.36 93.21,49.99 186.3,108.93 271.25,159.49 188.27,112.09 378.93,220.06 584.68,297.2 1175.13,440.58 2292.01,390.69 3362,-268.47 -13.06,1036.34 -34.1,2072.74 -55.54,3109.02 -29.97,-45.81 -85.57,-71.03 -193.14,-129.34 -98.75,-214.75 -190.88,-155.65 -438.14,-171.71 -114.02,-7.75 -55.14,18.27 -126.23,89.42l-61.48 -10.07c84.95,-107.85 80.87,6.9 86.13,-169.67 15.33,-113.62 9.67,-273.22 -38.4,-352.74 -19.28,-59.61 -27.94,-61.93 -11.48,-133.25 30.32,-42.64 0.17,-6.73 48.47,-30.37 38.51,-18.83 19.62,27.83 34.39,-15.44 2.65,-7.58 11.7,-5.6 17.02,-9.16 -207.85,-109.1 33.82,-108.42 -256.54,-164.07l-26.02 82.63 -116.62 41.17 30.49 29.92c93.6,92.81 103.38,110.34 51.24,287.53l-15.67 158.19c-114.02,61.25 -59.04,61.48 -179.34,64.48l-108.81 -96.83c-42.25,-59.72 -45.64,-93.15 -83.2,-150.72 -280.12,-1.19 -208.97,251.39 -349.18,303.2l-11.37 100.5c199.42,125.55 93.6,14.65 331.26,-19.12l51.69 131.61c27.43,43.94 28.45,61.36 63.57,91.73zm194.21 758.88c-49.43,33.14 -31.22,6.56 -61.47,72.62l58.42 68.83c95.69,-17.48 57.86,-3.85 106.83,-77.32 37.05,-70.47 16.12,-390.8 8.77,-493.4 -148.18,-69.9 39.99,-53.21 -153.78,-55.31l41.23 484.58zm-3163.09 3158.79l227.3 1238.48 -1182.71 4.18 181.15 -1037.36c-5.88,-111.98 2.49,-32.69 -20.64,-68.88 -60.97,38.63 -127.25,29.46 -202.76,32.86 -39.08,59.49 -14.59,46.83 -31.56,137.09l-186.97 16.74c-69.28,214.29 30.71,204.62 -233.75,212.37 -124.25,3.62 -323.39,2.6 -439.33,24.6 -131.72,25 -177.3,95.64 -303.31,149.48 -333.06,142.35 -185,1.13 -266.5,175.61 -494.87,120.07 -98.8,76.92 -364.28,145.41 -182.45,47.11 -165.31,90.15 -366.48,139.69 -27.26,86.31 47.33,85.23 -73.24,168.82 35,188.28 50.33,54.3 7.46,243.82 -34.05,150.78 45.19,110.23 35.97,237.65 -10.91,151.57 -66.51,37.21 -0.79,215.25 52.88,143.26 -27.49,34.1 -25.68,198.63 16.74,25.67 47.45,50.62 4.53,146.82l-16.8 98.8c208.3,101.97 14.25,110.8 223.74,127.31l0.28 131.21c182.51,35.97 109.38,7.47 158.13,83.82 89.81,140.66 -52.93,-59.61 32.18,42.08 24.15,28.73 -0.85,-7.86 35.07,37.83 168.08,213.45 41.11,-8.76 175.27,202.98 33.03,52.26 -10.47,6.4 34.04,42.48 58.6,47.73 60.86,-3.9 138.17,91.22l150.72 170.47c107.69,-66.18 -55.53,-13.13 178.67,-97.68l-30.49 -141.73 131.55 28.96 40.21 -115.38 340.53 35.97 -67.19 -513.02 543.4 -42.42 101.91 166.45c3,4.47 6.9,10.74 9.73,15.44 2.88,4.81 5.88,11.71 8.71,16.63 40.61,71.43 5.99,53.33 107.74,118.2 49.32,31.39 73.98,54.12 124.76,82.85 167.81,24.49 288.27,-300.37 455,-80.08 75.84,100.22 28.67,44.74 112.21,111.81 128.61,103.33 386.62,356.53 491.13,413.49 107.35,-99.71 47.46,-132.29 251.51,-135.96 500.02,-8.94 -78.89,-80.15 429.21,-115.04 103.5,-225.44 38.01,-254.51 207.62,-419.42 187.03,-181.89 -70.81,-23.98 293.02,-337.82 68.15,-58.76 93.09,-119.05 137.71,-164.07 96.66,-97.39 112.78,-6.61 163.17,-161.69 53.95,-166.16 -8.2,-66.57 152.3,-153.67 99.32,-53.84 81.05,-102.31 104.46,-224.07 358.01,-92.42 -16.85,-253.88 654.82,-257.96 108.53,-158.81 70.58,-49.99 239.63,-132.11 133.75,-64.99 99.93,-87.5 188.78,-182.51 177.14,70.19 228.89,217.18 354.33,345.73 70.13,71.83 57.29,130.08 124.37,137.26 167.74,-21.04 45.3,-12.72 99.42,-56.84l109.55 -66.28c74.6,-54.07 0.12,-31.5 91.06,-92.25 41.85,-27.93 260.55,-61.36 173,-291.26 -64.98,-170.63 -144.72,-43.44 -236.12,-365.7 -41.23,-145.12 -38.8,-57.06 -121.48,-158.64 -88.23,-108.36 23.58,-93.88 -156.21,-193.93 -154.06,-85.74 -12.61,-31.22 -122.96,-138.62 -42.3,-41.23 -12.66,3.51 -58.93,-41.91 -45.41,-44.51 -31.84,-55.25 -49.77,-112.94l-445.55 -4.53c-65.55,-195.23 19.74,-70.69 -108.3,-199.98l-6.06 -350.65c158.64,-36.48 211.02,-36.87 280.35,-125.22 28.45,-36.3 5.04,-42.3 69.74,-80.19 19.34,-11.31 11.54,12.78 67.64,-23.42l25.85 -209.43c-186.07,-24.6 -19.12,-16.96 -317.96,111.53 -111.87,48.02 -17.37,31.56 -174.37,45.25 -209.54,18.38 -402.91,179.28 -564.94,61.59 -70.02,-50.9 -27.32,-61.93 -142.86,-75.22 -71.38,-8.2 -176.35,-0.45 -250.55,1.19 -133.08,-92.19 18.27,-49.43 -130.08,-92.19 -229.17,-66.06 -43.04,-51.24 -147.1,-81.44l-755.6 63.57c-30.08,44.11 -25.45,57.85 -50.67,101.35 -50,86.36 -28.45,26.35 -83.31,99.03l79.46 317.28 -187.31 31.73 5.82 166.9 -447.87 37.49 18.1 116.11z"/>
 </g>
</svg>
